<?xml version="1.0" encoding="utf-8"?>
<!-- Generator: Adobe Illustrator 23.0.5, SVG Export Plug-In . SVG Version: 6.00 Build 0)  -->
<svg version="1.1" id="Layer_1" xmlns="http://www.w3.org/2000/svg" xmlns:xlink="http://www.w3.org/1999/xlink" x="0px" y="0px"
	 viewBox="0 0 1001.65 404.47" style="enable-background:new 0 0 1001.65 404.47;" xml:space="preserve">
<style type="text/css">
	.st0{fill:#519096;}
	.st1{fill:#44686E;}
	.st2{fill:none;stroke:#000000;stroke-miterlimit:10;}
	.st3{fill:#A2CCCB;}
	.st4{fill:#42656D;}
	.st5{fill:#528E95;}
</style>
<g>
	<path class="st0" d="M161.65,263.29c0,0-20.12-28.59-10.94-60.71c8.82-27.18,18.35-43.06,48.35-62.82
		c29.29-18.35,66.71-31.41,48-88.59c23.65,12,82.59,37.06,87.18,124.94c1.41,51.18-29.29,88.59-61.06,112.59
		c15.53,15.88,15.53,15.88,15.53,15.88s65.65-53.65,63.88-126.71c-2.82-64.94-51.18-153.88-152.47-150
		C86.78,32.23,19,171.88,88.88,261.53c36.41,46.94,78.41,57.53,110.18,60.35c0-14.47-1.99-38.12,6.95-48.35
		c11.76,0.71,50.58,11.29,53.41-9.18c1.76-14.82,1.06-14.65,4.59-19.94c4.59-5.65,6.35-8.47,3.53-16.41
		c4.94-6.53,7.24-6.88,2.65-25.41c4.59-4.59,10.41-4.94,13.24-7.76c2.82-2.82,3.35-4.41,3.35-4.41s-17.29,3.35-22.59,8.12
		c-1.41,1.94,3.71,17.65,3.71,19.24c-0.88,2.12-3.88,9.71-25.76,7.41c-0.18,2.82,0,5.29,10.24,5.29s13.24-0.88,12.53,4.24
		c-3.53,3-8.9,7.12-8.65,21.71c-0.53,10.41-5.12,15.18-19.41,15.35c-14.82-1.59-31.41-6.53-37.59-2.82
		c-6.18,3.71-11.82,19.94-10.41,37.06c-31.94-9.53-94.24-24.71-110.12-109.76C71.65,137.29,95.29,57.18,196.59,43.76
		c19.76-1.76,41.65,5.29,41.65,5.29s24.35,31.06-34.24,72c-48,31.41-54.71,37.41-67.41,75.53
		C129.18,222.35,134.12,248.47,161.65,263.29z"/>
	<path class="st1" d="M263.76,294.94l22.12,18.35c0,0-6.12,29.41-38.59,38.82S204,350.47,204,350.47s14.59-8,19.06-21.41
		c7.76-15.76,16-24.47,27.29-29.18C261.65,295.18,263.76,294.94,263.76,294.94z"/>
	<path class="st2" d="M220.35,158.68c0.13,0.72,0.52,1.45,1.22,2.04c3.82,3.24,8.94,5.02,13.93,5.03c6.04,0,17.66-3.5,14.97-11.75
		c-0.35-2.24-4.24,2.35-8.71,3.18c-4.47,0.82-12.24,1.41-17.65-1.29C221.57,154.79,219.99,156.71,220.35,158.68z"/>
	<path class="st3" d="M199.15,139.76c-30,19.76-39.53,35.65-48.35,62.82c-9.18,32.12,10.94,60.71,10.94,60.71
		c-27.53-14.82-32.47-40.94-25.06-66.71c12.71-38.12,19.41-44.12,67.41-75.53c58.59-40.94,34.24-72,34.24-72s-21.88-7.06-41.65-5.29
		C95.39,57.18,71.74,137.29,78.8,196.24C94.68,281.29,156.97,296.47,188.92,306c-1.41-17.12,4.24-33.35,10.41-37.06
		c6.18-3.71,22.76,1.24,37.59,2.82c14.29-0.18,18.88-4.94,19.41-15.35c-0.25-14.58,5.12-18.71,8.65-21.71
		c0.71-5.12-2.29-4.24-12.53-4.24s-10.41-2.47-10.24-5.29c21.88,2.29,24.88-5.29,25.76-7.41c0-1.59-5.12-17.29-3.71-19.24
		c5.29-4.76,22.59-8.12,22.59-8.12c3.35-4.41-2.29-9.82-5.82-13.82s-16.47-16.71-17.41-36.71c6.12-35.53-11.8-67.74-11.8-67.74
		c0,0,0-0.01,0-0.01C255.84,111.99,224.47,123.9,199.15,139.76z"/>
	<path class="st0" d="M235.59,165.75c-5,0-10.11-1.78-13.93-5.03c-0.7-0.59-1.09-1.32-1.22-2.04c-0.36-1.97,1.22-3.89,3.77-2.8
		c5.41,2.71,13.18,2.12,17.65,1.29s8.35-5.41,8.71-3.18C253.25,162.25,241.63,165.75,235.59,165.75z"/>
	<g>
		<path class="st4" d="M418.19,272.23c1.65,0.37,3.24,1.01,4.76,1.9c1.52,0.9,2.9,2.08,4.17,3.55c1.26,1.47,2.28,3.31,3.07,5.54
			l-6.03,1.7c-0.95-2.58-2.29-4.53-4.05-5.86c-1.75-1.33-4.03-1.99-6.82-1.99c-3.94,0-7.02,1.41-9.25,4.22
			c-2.23,2.81-3.34,6.72-3.34,11.72c0,2.46,0.27,4.69,0.8,6.68c0.53,1.99,1.32,3.69,2.36,5.1c1.04,1.41,2.35,2.49,3.93,3.25
			c1.58,0.76,3.41,1.14,5.49,1.14c3.15,0,5.67-0.76,7.56-2.29c1.89-1.52,3.31-3.69,4.25-6.51l5.85,1.93
			c-0.75,2.11-1.73,3.94-2.95,5.48c-1.22,1.54-2.61,2.81-4.17,3.81c-1.56,1-3.23,1.74-5.02,2.23c-1.79,0.49-3.63,0.73-5.52,0.73
			c-2.09,0-4.24-0.35-6.47-1.05c-2.23-0.7-4.25-1.89-6.08-3.55c-1.83-1.66-3.34-3.87-4.52-6.62c-1.18-2.75-1.77-6.18-1.77-10.29
			c0-3.87,0.54-7.16,1.62-9.88c1.08-2.72,2.51-4.92,4.28-6.62c1.77-1.7,3.79-2.94,6.06-3.72c2.26-0.78,4.58-1.17,6.94-1.17
			C414.92,271.67,416.54,271.86,418.19,272.23z"/>
		<path class="st4" d="M453.7,282.37c0.43,0.02,0.79,0.05,1.06,0.09v6.09c-0.55-0.04-0.95-0.06-1.18-0.06h-0.65
			c-1.26,0-2.42,0.17-3.49,0.5c-1.06,0.33-1.99,0.92-2.78,1.76s-1.41,1.96-1.86,3.37c-0.45,1.41-0.68,3.18-0.68,5.33v14.18h-5.91
			v-30.59h5.91v5.1c1.02-1.95,2.28-3.41,3.78-4.37s3.05-1.44,4.67-1.44C452.89,282.34,453.27,282.35,453.7,282.37z"/>
		<path class="st4" d="M478.66,283.57c1.71,0.82,3.15,1.95,4.31,3.4c1.16,1.45,2.05,3.15,2.66,5.1c0.61,1.95,0.92,4.04,0.92,6.27
			v1.35h-22.21c0.08,3.17,0.89,5.58,2.42,7.24c1.54,1.66,3.72,2.49,6.56,2.49c2.01,0,3.67-0.44,4.99-1.32c1.32-0.88,2.35-2,3.1-3.37
			l4.9,2.58c-1.38,2.23-3.16,3.96-5.35,5.19c-2.19,1.23-4.8,1.85-7.83,1.85c-2.4,0-4.53-0.41-6.38-1.23s-3.41-1.94-4.67-3.37
			s-2.22-3.12-2.87-5.07c-0.65-1.95-0.97-4.06-0.97-6.33c0-2.31,0.31-4.43,0.92-6.39c0.61-1.95,1.53-3.64,2.75-5.07
			c1.22-1.43,2.74-2.54,4.55-3.34s3.9-1.2,6.26-1.2C474.97,282.34,476.95,282.75,478.66,283.57z M466.88,289.28
			c-1.42,1.39-2.25,3.35-2.48,5.89h16.01c-0.2-2.62-0.96-4.6-2.3-5.95c-1.34-1.35-3.15-2.02-5.44-2.02
			C470.22,287.2,468.29,287.9,466.88,289.28z"/>
		<path class="st4" d="M511.07,282.98c1.54,0.43,2.79,1.06,3.75,1.9c0.96,0.84,1.66,1.86,2.1,3.05c0.43,1.19,0.65,2.55,0.65,4.07v15
			c0,1.13,0.07,2.26,0.21,3.37s0.42,2.2,0.86,3.25h-6.14c-0.2-0.55-0.35-1.1-0.47-1.67c-0.12-0.57-0.22-1.12-0.29-1.67
			c-1.26,1.48-2.75,2.53-4.46,3.14c-1.71,0.61-3.4,0.91-5.05,0.91s-3.14-0.23-4.46-0.7s-2.42-1.12-3.31-1.96
			c-0.89-0.84-1.57-1.83-2.04-2.96c-0.47-1.13-0.71-2.36-0.71-3.69c0-2.74,0.95-4.97,2.84-6.71c1.89-1.74,5.02-2.88,9.39-3.43
			l7.74-0.94v-1.52c0-1.02-0.1-1.88-0.3-2.58c-0.2-0.7-0.53-1.27-1-1.7s-1.11-0.73-1.92-0.91s-1.84-0.26-3.1-0.26
			c-2.32,0-4,0.38-5.02,1.14s-1.58,2.06-1.65,3.9h-5.73c0.04-1.68,0.37-3.13,0.98-4.34s1.47-2.21,2.57-2.99
			c1.1-0.78,2.41-1.37,3.93-1.76s3.2-0.59,5.05-0.59C507.66,282.34,509.54,282.55,511.07,282.98z M499.67,300.89
			c-1.22,0.84-1.83,2.1-1.83,3.78c0,1.33,0.4,2.44,1.21,3.34c0.81,0.9,2.22,1.35,4.22,1.35c1.1,0,2.17-0.18,3.19-0.53
			s1.92-0.84,2.69-1.47c0.77-0.63,1.38-1.38,1.83-2.26c0.45-0.88,0.68-1.85,0.68-2.9v-3.87l-5.97,0.76
			C502.9,299.45,500.89,300.05,499.67,300.89z"/>
		<path class="st4" d="M541.26,283.04v4.51h-7.98v17.88c0,1.33,0.28,2.32,0.83,2.99c0.55,0.66,1.58,1,3.07,1
			c0.91,0,1.79-0.08,2.66-0.23c0.87-0.16,1.62-0.33,2.25-0.53v4.75c-0.79,0.23-1.68,0.45-2.69,0.64c-1,0.2-2.12,0.29-3.34,0.29
			c-1.61,0-2.97-0.2-4.08-0.59s-2-0.95-2.69-1.67c-0.69-0.72-1.18-1.58-1.48-2.58c-0.3-1-0.44-2.08-0.44-3.25v-18.7h-4.25v-4.51
			h4.25v-8.09h5.91v8.09H541.26z"/>
		<path class="st4" d="M565.99,283.57c1.71,0.82,3.15,1.95,4.31,3.4s2.05,3.15,2.66,5.1c0.61,1.95,0.92,4.04,0.92,6.27v1.35h-22.21
			c0.08,3.17,0.89,5.58,2.42,7.24c1.54,1.66,3.72,2.49,6.56,2.49c2.01,0,3.67-0.44,4.99-1.32c1.32-0.88,2.35-2,3.1-3.37l4.9,2.58
			c-1.38,2.23-3.16,3.96-5.35,5.19c-2.19,1.23-4.8,1.85-7.83,1.85c-2.4,0-4.53-0.41-6.38-1.23c-1.85-0.82-3.41-1.94-4.67-3.37
			s-2.22-3.12-2.87-5.07c-0.65-1.95-0.98-4.06-0.98-6.33c0-2.31,0.31-4.43,0.92-6.39c0.61-1.95,1.53-3.64,2.75-5.07
			c1.22-1.43,2.74-2.54,4.55-3.34s3.9-1.2,6.26-1.2C562.3,282.34,564.28,282.75,565.99,283.57z M554.2,289.28
			c-1.42,1.39-2.25,3.35-2.48,5.89h16.01c-0.2-2.62-0.96-4.6-2.3-5.95c-1.34-1.35-3.15-2.02-5.44-2.02
			C557.55,287.2,555.62,287.9,554.2,289.28z"/>
		<path class="st4" d="M609.03,319.14c-0.51,1.06-1.17,1.95-1.98,2.7s-1.79,1.32-2.95,1.73s-2.59,0.62-4.28,0.62
			c-0.67,0-1.31-0.03-1.92-0.09s-1.17-0.15-1.68-0.26v-4.63c0.55,0.08,0.98,0.12,1.3,0.12h1.18c1.1,0,2.01-0.11,2.72-0.32
			s1.3-0.55,1.77-1s0.86-1.04,1.15-1.76c0.3-0.72,0.58-1.59,0.86-2.61h-1.95l-10.58-30.59h6.44l8.09,26.02l7.5-26.02h6.09
			l-10.34,32.59C610.02,316.92,609.55,318.09,609.03,319.14z"/>
		<path class="st4" d="M644.87,283.57c1.83,0.82,3.4,1.95,4.7,3.4c1.3,1.45,2.3,3.15,3.01,5.1c0.71,1.95,1.06,4.04,1.06,6.27
			c0,2.34-0.33,4.49-1,6.45c-0.67,1.95-1.64,3.64-2.92,5.07s-2.85,2.53-4.7,3.31s-3.96,1.17-6.32,1.17s-4.47-0.4-6.32-1.2
			s-3.42-1.92-4.7-3.37s-2.26-3.14-2.95-5.07c-0.69-1.93-1.03-4.05-1.03-6.36s0.34-4.43,1.03-6.39c0.69-1.95,1.68-3.64,2.98-5.07
			c1.3-1.43,2.88-2.54,4.73-3.34c1.85-0.8,3.94-1.2,6.26-1.2C640.98,282.34,643.04,282.75,644.87,283.57z M632.23,290.22
			c-1.6,1.89-2.39,4.56-2.39,8c0,3.56,0.77,6.3,2.3,8.23c1.54,1.93,3.72,2.9,6.56,2.9c2.8,0,4.96-0.97,6.5-2.9
			c1.54-1.93,2.3-4.68,2.3-8.23c0-3.44-0.8-6.11-2.39-8c-1.6-1.9-3.73-2.84-6.41-2.84C635.98,287.38,633.82,288.33,632.23,290.22z"
			/>
		<path class="st4" d="M680.05,313.64v-3.52c-1.14,1.37-2.49,2.41-4.05,3.14s-3.16,1.08-4.81,1.08c-3.19,0-5.73-0.87-7.62-2.61
			c-1.89-1.74-2.84-4.39-2.84-7.94v-20.75h5.91v19.46c0,2.38,0.43,4.1,1.3,5.16c0.87,1.06,2.32,1.58,4.37,1.58
			c2.25,0,4.1-0.74,5.55-2.23c1.46-1.48,2.19-3.58,2.19-6.27v-17.7h5.91v30.59H680.05z"/>
		<path class="st4" d="M710.54,282.37c0.43,0.02,0.79,0.05,1.06,0.09v6.09c-0.55-0.04-0.95-0.06-1.18-0.06h-0.65
			c-1.26,0-2.42,0.17-3.49,0.5c-1.06,0.33-1.99,0.92-2.78,1.76s-1.41,1.96-1.86,3.37c-0.45,1.41-0.68,3.18-0.68,5.33v14.18h-5.91
			v-30.59h5.91v5.1c1.02-1.95,2.28-3.41,3.78-4.37c1.5-0.96,3.05-1.44,4.67-1.44C709.74,282.34,710.11,282.35,710.54,282.37z"/>
		<path class="st4" d="M753.97,284.57c2.24,1.49,3.88,3.4,4.9,5.74l-5.14,2.11c-0.71-1.6-1.69-2.84-2.96-3.72
			c-1.26-0.88-2.82-1.32-4.67-1.32c-2.68,0-4.83,0.94-6.47,2.81c-1.63,1.88-2.45,4.55-2.45,8.03c0,3.56,0.79,6.3,2.36,8.23
			c1.58,1.93,3.76,2.9,6.56,2.9c1.18,0,2.22-0.17,3.1-0.5c0.89-0.33,1.64-0.78,2.27-1.35c0.63-0.57,1.17-1.22,1.63-1.96
			s0.86-1.52,1.21-2.34l5.2,2.23c-0.55,1.29-1.25,2.47-2.1,3.55c-0.85,1.07-1.84,2.01-2.98,2.81c-1.14,0.8-2.43,1.43-3.87,1.88
			s-3,0.67-4.7,0.67c-2.36,0-4.46-0.4-6.29-1.2c-1.83-0.8-3.39-1.92-4.67-3.37s-2.25-3.14-2.89-5.07c-0.65-1.93-0.97-4.05-0.97-6.36
			s0.34-4.43,1.03-6.39c0.69-1.95,1.67-3.64,2.95-5.07c1.28-1.43,2.84-2.54,4.67-3.34c1.83-0.8,3.89-1.2,6.17-1.2
			C749.03,282.34,751.72,283.08,753.97,284.57z"/>
		<path class="st4" d="M783.28,282.98c1.54,0.43,2.79,1.06,3.75,1.9c0.96,0.84,1.66,1.86,2.1,3.05c0.43,1.19,0.65,2.55,0.65,4.07v15
			c0,1.13,0.07,2.26,0.21,3.37s0.42,2.2,0.86,3.25h-6.14c-0.2-0.55-0.35-1.1-0.47-1.67c-0.12-0.57-0.22-1.12-0.3-1.67
			c-1.26,1.48-2.75,2.53-4.46,3.14c-1.71,0.61-3.4,0.91-5.05,0.91s-3.14-0.23-4.46-0.7s-2.42-1.12-3.31-1.96
			c-0.89-0.84-1.57-1.83-2.04-2.96c-0.47-1.13-0.71-2.36-0.71-3.69c0-2.74,0.95-4.97,2.84-6.71c1.89-1.74,5.02-2.88,9.39-3.43
			l7.74-0.94v-1.52c0-1.02-0.1-1.88-0.29-2.58c-0.2-0.7-0.53-1.27-1-1.7s-1.11-0.73-1.92-0.91s-1.84-0.26-3.1-0.26
			c-2.32,0-4,0.38-5.02,1.14s-1.58,2.06-1.65,3.9h-5.73c0.04-1.68,0.36-3.13,0.97-4.34s1.47-2.21,2.57-2.99
			c1.1-0.78,2.41-1.37,3.93-1.76s3.2-0.59,5.05-0.59C779.87,282.34,781.74,282.55,783.28,282.98z M771.87,300.89
			c-1.22,0.84-1.83,2.1-1.83,3.78c0,1.33,0.4,2.44,1.21,3.34c0.81,0.9,2.22,1.35,4.22,1.35c1.1,0,2.17-0.18,3.19-0.53
			s1.92-0.84,2.69-1.47c0.77-0.63,1.38-1.38,1.83-2.26c0.45-0.88,0.68-1.85,0.68-2.9v-3.87l-5.97,0.76
			C775.1,299.45,773.09,300.05,771.87,300.89z"/>
		<path class="st4" d="M855.27,285.47c1.67,2.09,2.51,4.97,2.51,8.65v19.52h-5.91v-16.35c0-1.6-0.07-3.02-0.21-4.25
			c-0.14-1.23-0.39-2.27-0.77-3.11c-0.37-0.84-0.93-1.48-1.65-1.91s-1.68-0.64-2.87-0.64c-1.02,0-1.98,0.22-2.87,0.67
			c-0.89,0.45-1.64,1.06-2.27,1.85c-0.63,0.78-1.12,1.73-1.48,2.84c-0.35,1.11-0.53,2.33-0.53,3.66v17.23h-5.91v-16.35
			c0-1.6-0.07-3.02-0.21-4.25c-0.14-1.23-0.39-2.27-0.77-3.11c-0.37-0.84-0.93-1.48-1.65-1.91s-1.68-0.64-2.87-0.64
			c-1.02,0-1.98,0.22-2.87,0.67c-0.89,0.45-1.64,1.06-2.28,1.85c-0.63,0.78-1.12,1.73-1.48,2.84c-0.35,1.11-0.53,2.33-0.53,3.66
			v17.23h-5.91v-30.59h5.91v3.52c1.1-1.45,2.35-2.51,3.75-3.19s2.92-1.03,4.58-1.03c2.17,0,3.97,0.45,5.41,1.35s2.53,2.17,3.28,3.81
			c1.22-1.88,2.72-3.2,4.49-3.99c1.77-0.78,3.56-1.17,5.38-1.17C851.02,282.34,853.6,283.38,855.27,285.47z"/>
		<path class="st4" d="M873.14,307.22c0.83,0.84,1.24,1.83,1.24,2.96s-0.41,2.11-1.24,2.93s-1.81,1.23-2.95,1.23
			c-1.18,0-2.19-0.42-3.01-1.26c-0.83-0.84-1.24-1.83-1.24-2.96s0.41-2.11,1.24-2.93c0.83-0.82,1.83-1.23,3.01-1.23
			C871.33,305.96,872.32,306.38,873.14,307.22z"/>
		<rect x="799.29" y="268.12" class="st4" width="4.24" height="46.22"/>
	</g>
	<g>
		<path class="st5" d="M422.82,211.68h46.82v18.27h-71.59v-16.96l46.05-66.69h-42.95v-17.83h67.07v17.4L422.82,211.68z"/>
		<path class="st5" d="M527.58,154.04c4.49,1.98,8.27,4.78,11.36,8.41c3.08,3.62,5.44,8,7.08,13.12c1.63,5.12,2.45,10.78,2.45,16.96
			v4.06H496.6c0.37,6.38,2.15,11.12,5.33,14.21c3.18,3.09,7.43,4.64,12.76,4.64c4.21,0,7.66-0.94,10.37-2.83
			c2.71-1.88,4.86-4.28,6.45-7.18l16.4,8.26c-3.55,5.8-8.18,10.29-13.88,13.48c-5.7,3.19-12.57,4.79-20.61,4.79
			c-5.98,0-11.31-1.02-15.98-3.04c-4.67-2.03-8.62-4.83-11.85-8.41c-3.22-3.58-5.7-7.85-7.43-12.83s-2.59-10.37-2.59-16.17
			c0-5.9,0.82-11.33,2.45-16.31c1.64-4.98,4-9.25,7.08-12.83c3.08-3.58,6.92-6.36,11.5-8.34c4.58-1.98,9.81-2.97,15.7-2.97
			C518,151.07,523.1,152.06,527.58,154.04z M501.43,170.5c-2.76,2.71-4.37,6.91-4.84,12.61h30.84c-0.37-5.8-1.87-10.03-4.49-12.69
			c-2.62-2.66-6.17-3.99-10.66-3.99C507.81,166.44,504.19,167.79,501.43,170.5z"/>
		<path class="st5" d="M620.5,158.54c4.21,5.07,6.32,12.25,6.32,21.53v49.88h-20.06v-43.5c0-5.8-0.78-10.2-2.34-13.19
			c-1.56-3-4.53-4.49-8.93-4.49c-4.4,0-7.97,1.72-10.72,5.15c-2.75,3.43-4.12,8-4.12,13.7v42.34h-20.06v-76.99h19.51v10.15
			c2.66-4.35,5.89-7.47,9.69-9.35c3.8-1.88,7.99-2.83,12.57-2.83C610.24,150.93,616.29,153.46,620.5,158.54z"/>
	</g>
	<g>
		<path class="st4" d="M698.46,156.65c5.38,3.72,9.5,8.82,12.35,15.3l-16.95,7.25c-1.25-3.67-3.09-6.48-5.54-8.41
			c-2.45-1.93-5.41-2.9-8.88-2.9c-5.07,0-9.12,1.93-12.15,5.8c-3.02,3.87-4.54,9.71-4.54,17.54c0,7.83,1.49,13.77,4.47,17.83
			c2.98,4.06,7.05,6.09,12.21,6.09c2.22,0,4.16-0.34,5.81-1.01s3.07-1.62,4.27-2.83c1.2-1.21,2.23-2.61,3.07-4.21
			c0.85-1.59,1.58-3.26,2.2-5l16.82,7.25c-2.85,6.67-7.01,12.11-12.48,16.31c-5.47,4.21-12.39,6.31-20.76,6.31
			c-5.61,0-10.66-1.02-15.15-3.04c-4.49-2.03-8.28-4.83-11.35-8.41c-3.07-3.58-5.43-7.83-7.07-12.76
			c-1.65-4.93-2.47-10.34-2.47-16.24s0.84-11.33,2.54-16.31s4.09-9.25,7.21-12.83c3.11-3.58,6.9-6.36,11.35-8.34
			c4.45-1.98,9.43-2.97,14.95-2.97C686.38,151.07,693.08,152.93,698.46,156.65z"/>
		<path class="st4" d="M769.04,151.36v20.59c-1.29-0.1-2.26-0.15-2.9-0.15h-1.52c-2.85,0-5.5,0.39-7.94,1.16
			c-2.44,0.77-4.56,2.13-6.35,4.06c-1.8,1.93-3.22,4.62-4.28,8.05c-1.06,3.43-1.59,7.76-1.59,12.98v31.9H724.3v-76.99h19.61v12.47
			c2.49-5.22,5.41-8.94,8.77-11.16c3.36-2.22,6.97-3.33,10.84-3.33C765.54,150.93,767.38,151.07,769.04,151.36z"/>
		<path class="st4" d="M839.04,157.38c4.66,4.3,6.99,10.27,6.99,17.91v37.84c0,3.09,0.14,5.99,0.41,8.7
			c0.27,2.71,0.95,5.41,2.04,8.12H828.8c-1.09-2.42-1.85-5.03-2.31-7.83c-2.62,3.58-5.77,6.09-9.43,7.54
			c-3.66,1.45-7.53,2.17-11.6,2.17c-3.8,0-7.21-0.58-10.24-1.74c-3.03-1.16-5.56-2.8-7.6-4.93c-2.04-2.13-3.6-4.62-4.68-7.47
			c-1.09-2.85-1.63-5.97-1.63-9.35c0-7.25,2.26-13.07,6.78-17.47c4.52-4.4,12.21-7.32,23.07-8.77l15.06-2.03v-3.33
			c0-4.06-0.75-6.89-2.24-8.48s-4.41-2.39-8.75-2.39c-4.07,0-6.99,0.77-8.75,2.32c-1.76,1.55-2.69,4.16-2.78,7.83h-19.54
			c0.18-8.41,3.05-14.69,8.62-18.85c5.56-4.16,13.19-6.23,22.86-6.23C826.58,150.93,834.38,153.08,839.04,157.38z M804.85,198.77
			c-2.22,1.74-3.32,4.25-3.32,7.54c0,2.71,0.77,4.91,2.31,6.6c1.54,1.69,3.98,2.54,7.33,2.54c1.99,0,3.91-0.36,5.77-1.09
			c1.85-0.73,3.46-1.72,4.82-2.97s2.44-2.75,3.26-4.5c0.81-1.74,1.22-3.67,1.22-5.8v-7.54L816.04,195
			C810.79,195.78,807.06,197.03,804.85,198.77z"/>
		<path class="st4" d="M905.06,120.28c2.67,0.57,5.07,1.26,7.22,2.09v16.41c-1.63-0.62-3.53-1.19-5.67-1.7
			c-2.15-0.52-4.21-0.77-6.19-0.77c-2.75,0-4.75,0.54-6,1.63c-1.25,1.08-1.87,6.17-1.87,9.27v4.95h18.9v16.1h-18.9v61.7h-18.83
			v-61.7h-14.29v-16.1h14.29v-9.5c0-3.41,0.43-6.53,1.29-9.36c0.86-2.84,2.21-5.29,4.06-7.35s4.23-3.66,7.16-4.8
			c2.92-1.14,6.41-1.7,10.45-1.7C899.6,119.42,902.39,119.71,905.06,120.28z"/>
		<path class="st4" d="M962.58,152.46v15.23h-16.51v35.46c0,3.22,0.56,5.61,1.68,7.17c1.12,1.56,3.22,2.34,6.32,2.34
			c1.81,0,3.5-0.15,5.09-0.44c1.59-0.29,3.16-0.68,4.71-1.17v16.25c-2.06,0.78-4.34,1.42-6.84,1.9c-2.49,0.49-5.16,0.73-8,0.73
			c-4.04,0-7.46-0.54-10.25-1.61c-2.79-1.07-5.05-2.64-6.77-4.69c-1.72-2.05-2.95-4.54-3.68-7.47c-0.73-2.93-1.1-6.2-1.1-9.81
			v-38.68h-13.29v-15.23h13.29v-21.21h18.83v21.21H962.58z"/>
	</g>
</g>
</svg>
