<svg xmlns="http://www.w3.org/2000/svg" fill="none" viewBox="0 0 1024 1024"><path stroke="#193F6C" stroke-width=".3" d="M628 215c-10.22-7.76-18.62-13.95-30.31-19.69-11.68-5.75-24.5-9.57-37.62-12.38-13.11-2.81-33.16-4.08-47.05-2.91-13.88 1.18-27.46 4.99-39.8 9.2-12.33 4.22-23.18 9.7-33.99 16.01-10.81 6.31-19.33 13.17-28.48 21.52-9.15 8.35-16.1 15.83-23.5 25.5-7.4 9.66-13.66 19.71-18.94 31.06-5.29 11.34-10.14 24.54-12.98 37.02-2.84 12.48-1.53 32.26-15.65 34.35-14.12 2.09-21.55 10.16-32.6 16.4-11.04 6.25-17.5 14.97-25.83 24.17-8.32 9.21-13.12 20.68-18.47 31.53-5.36 10.84-4.05 28.2-15.7 33.3-11.66 5.09-19.84 11.96-28.31 21.69-8.47 9.73-13.32 19.56-18.45 31.55-5.13 11.99-6.49 28.43-5.32 41.68s4.51 27.57 11.08 38.92c6.56 11.36 11.83 19.42 22.17 27.83 10.34 8.41 18.68 13.24 31.52 18.48 12.85 5.24 27.72 6.34 43.23 5.77 15.51-.57 33.9.26 50 0s33.67.12 50 0 32.56.05 49 0c16.44-.05 33.5.02 50 0s33.56 0 50 0c16.44 0 32.66-.02 49 0 16.34.02 33.86-.04 50 0s34.4-.1 50 0c15.6.1 33.42.79 46.98-3.02 13.55-3.81 22.28-8.2 32.77-16.23 10.5-8.02 16.78-15.25 23.95-26.05 7.17-10.81 10.99-23.65 13.31-36.69 2.32-13.04.89-31.63-3.08-43.94-3.98-12.3-9.96-22.5-17.16-32.84-7.2-10.34-15.13-17.62-25.52-24.48-10.39-6.85-22.82-11.96-35.25-13.75-8.06-43.28-45.63-79.33-87-92 2.12 15.91 1.97 35.99 16.92 43.08 14.94 7.09 20.19 17.07 29.78 29.23 9.58 12.15 11.17 30.94 13.3 45.69 31.89-1.09 64.05 18.12 74.22 48.78 10.17 30.65 2.17 67.49-28.99 83.45-31.16 15.95-78.54 5.98-113.23 8.77-34.69 2.79-67.67-8.23-93.25-28.75s-46.53-33.98-76.73-45.27c-30.19-11.3-72.72-10.77-100.32 5.72-27.61 16.48-45.89 38.09-53.7 68.3-39.1 7.14-81.42-12.73-91-52-9.58-39.26 17.43-81.17 58-83-3.38-42.71 25.92-81.68 65-96 4.49 35.59 26 71.46 11 108 40.71-23.75 44.17-71.93 44.02-113.98-.14-42.04 23.08-76.92 57.29-100.71 34.2-23.8 87.24-23.86 124.69-6.31 8.71-21.66 23.44-41.07 41-57Z"/><path stroke="#193F6C" stroke-width=".3" d="M653 474c-7.22-37.5-12.71-83.08-21.67-119.33s-33.77-59.96-68.32-72.68c-34.56-12.72-78.42-3.81-106.76 21.26-28.34 25.06-40.91 65.76-33.18 103.68 7.73 37.91-3.9 78.63-29.07 107.07 31.35-5.47 63.63.34 92 12-4.08-23.89-1.59-50.27 0-74 12.45 63.01 79.29 96.44 134 115-2.19-11.25-3.59-22.56-5-34-1.41-11.44-.84-24.59-2.02-35.98-1.18-11.39-1.36-24.08-2.98-35.02-1.62-10.94.76-26.97-2.22-36.78-2.99-9.8-17.9-7.99-25.08-12.91-7.19-4.93-16.78-8.04-21.78-16.23-5.01-8.18-12.32-12.73-16.92-21.08 25.94 6.09 51.23 14.45 77 21 .3 11.11 3.4 23.68 2 35s.22 21.7 9.75 27.25c9.53 5.55 10.83 11.13 20.25 15.75ZM147 687c-7.74 1.65-17.23 1.65-25 0v94h18c.66-19.85-1.33-40.9 1-60 6.01 19.44 13 38.58 19 58 3.88-2.04 8.7-.55 13-1 6.84-18.65 10.15-40.83 20-57-1.47 19.62-.36 39.17-1 60h19v-93h-26c-5.67 20.47-11.43 41.43-19 61-5.85-20.81-12.61-41.35-19-62ZM376 687c-5.4 1.19-12.71-1.62-17.92.08-5.2 1.71-.42 12.05-2.08 15.92h20v-16ZM678 717c5.94-31.61-45.04-40-59.75-19.75-14.72 20.25-16.1 58.19 1.5 77 17.61 18.81 62.78 5.63 60.25-23.25h-20c-.14 8.34-5.21 15.52-14 16-8.78.48-14.71-5.73-16.22-13.78-1.51-8.05-2.38-20.17-1.76-28.2.63-8.02 2.84-16.8 8.75-21.25 5.92-4.45 18.22-4.94 20.45 4.01 2.24 8.94 9.87 11.65 20.78 9.22ZM705 688h-18v93h18v-93ZM904 688h-20c2.29 10.14.36 21.41 1 32-9.4-12.36-30.76-10.09-36.69 4.31-5.94 14.39-6.11 32.85.39 47 6.49 14.14 26.57 14.7 36.3 3.69-.2 9.82 12.02 4.83 19 6v-93Zm-28 37c8.96 1.5 8.33 17.01 9 24 .67 6.99-2.88 22.25-13 20-10.12-2.25-8.78-16.21-9-24-.22-7.79 2.75-21.71 13-20ZM277 781c-5.68-17.81 6.98-50.56-7.77-64.23-14.76-13.67-45.79-3.03-46.23 16.23 6.26-.67 11.75 1.67 18 1-.46-15.78 22.86-9.17 17 5-17.15-.72-40.1 5.5-37.98 25.98 2.13 20.47 26.15 21.82 37.98 11.02.65 8.78 12.44 3.65 19 5Zm-19-31c4.49 10.27-6.65 27.7-17.25 17.25-10.6-10.46 8.71-18.52 17.25-17.25ZM438 721c-7.48-12.2-25.34-11.23-34-1-.13-2.76.83-7.09-2-7-5.09-.15-11.18 1.14-16 0v68h18c.22-15.4-.6-27.88.67-43.33S423.81 725.08 422 740c-1.8 14.92 4.25 26.54 0 41h19c-.53-15.23.71-26.36 0-42s19.61-14.64 17 1c-2.61 15.64 1.96 25.85 0 41h19c-1.38-18.32 2.72-39.62-2.08-56.92-4.79-17.31-27.93-13.53-36.92-3.08ZM584 734c10.13 1.54 18.9-2.8 13.92-11.92-4.97-9.13-11.21-9.09-19.92-10.08-8.71-.99-16.85 1.54-22.75 7.25-5.9 5.71-6.71 15.99-3.5 23 3.2 7.02 12.11 10.25 19.03 10.97 6.91.72 18.7 6.09 12.47 14.03-6.23 7.93-17.93-.25-16.25-8.25-6.06.48-11.85 1.94-18 2-1.23 11.05 8.59 20.34 19 21 10.41.66 24.11.72 30.75-8.25 6.63-8.98 5.02-20.32-2.52-27.98-7.54-7.66-21.34-1.62-27.91-11.09-6.57-9.48 19.15-16.29 15.68-.68Z"/><path stroke="#193F6C" stroke-width=".3" d="M749 712c-40.52-5.79-52.17 60.59-12 70 40.17 9.41 51.75-64.32 12-70Zm-1 13c9.02 2.74 6.99 19.76 7 27 .01 7.24-3.53 23.82-16.07 17.07-12.55-6.75-12.59-50.64 9.07-44.07ZM318 735c-4.78-4.86-6.19-11.02-10.08-17.92-3.88-6.9-16.25-3.28-23.92-4.08 6.79 11.67 15.2 22.31 22 34-8.01 10.85-15.25 22.71-23 34 7.56-.57 20.53 2.79 24.08-4.92 3.54-7.71 5.38-11.58 9.92-18.08 3.54 6.82 5.76 12.3 9.75 19.25 3.98 6.96 17.05 2.55 24.25 3.75-8.26-11.86-16.47-23.68-24-36 8.5-9.59 14.92-21.21 22-32-5.82 2.14-18.11-3.55-22.23 2.77-4.12 6.33-5.96 12.52-8.77 19.23ZM376 713c-6.26.58-13.15-1.21-19 1 2.33 21.8.34 44.75 1 67h18v-68ZM505 714c-5.76-2.51-13.48.02-19-1 1.64 18.04-2.72 40.55 1.23 57.77 3.95 17.22 28.35 13.63 36.77 3.23-2.81 11.74 12.25 5.44 19 7v-68h-19c.14 14.91-.18 29-.01 43.99.18 14.99-21.43 13.71-19.99-.99 1.44-14.7-1.9-27.92 1-42Z"/><path stroke="#193F6C" stroke-width=".3" d="M799 713c-6.26.58-13.15-1.21-19 1 1.06 17.57-.01 33.02 1.02 51.98 1.04 18.95 28.24 21.55 37.98 8.02-2.89 11.44 11.42 5.62 18 7v-68h-18c-.28 14.78.4 29.1-.07 43.93-.48 14.83-21.81 14.19-19.93-.93 1.88-15.12-1.41-28.08 0-43Z"/><path fill="#193F6C" stroke="#193F6C" d="M628 215c-10.22-7.76-18.62-13.95-30.31-19.69-11.68-5.75-24.5-9.57-37.62-12.38-13.11-2.81-33.16-4.08-47.05-2.91-13.88 1.18-27.46 4.99-39.8 9.2-12.33 4.22-23.18 9.7-33.99 16.01-10.81 6.31-19.33 13.17-28.48 21.52-9.15 8.35-16.1 15.83-23.5 25.5-7.4 9.66-13.66 19.71-18.94 31.06-5.29 11.34-10.14 24.54-12.98 37.02-2.84 12.48-1.53 32.26-15.65 34.35-14.12 2.09-21.55 10.16-32.6 16.4-11.04 6.25-17.5 14.97-25.83 24.17-8.32 9.21-13.12 20.68-18.47 31.53-5.36 10.84-4.05 28.2-15.7 33.3-11.66 5.09-19.84 11.96-28.31 21.69-8.47 9.73-13.32 19.56-18.45 31.55-5.13 11.99-6.49 28.43-5.32 41.68s4.51 27.57 11.08 38.92c6.56 11.36 11.83 19.42 22.17 27.83 10.34 8.41 18.68 13.24 31.52 18.48 12.85 5.24 27.72 6.34 43.23 5.77 15.51-.57 33.9.26 50 0s33.67.12 50 0 32.56.05 49 0c16.44-.05 33.5.02 50 0s33.56 0 50 0c16.44 0 32.66-.02 49 0 16.34.02 33.86-.04 50 0s34.4-.1 50 0c15.6.1 33.42.79 46.98-3.02 13.55-3.81 22.28-8.2 32.77-16.23 10.5-8.02 16.78-15.25 23.95-26.05 7.17-10.81 10.99-23.65 13.31-36.69 2.32-13.04.89-31.63-3.08-43.94-3.98-12.3-9.96-22.5-17.16-32.84-7.2-10.34-15.13-17.62-25.52-24.48-10.39-6.85-22.82-11.96-35.25-13.75-8.06-43.28-45.63-79.33-87-92 2.12 15.91 1.97 35.99 16.92 43.08 14.94 7.09 20.19 17.07 29.78 29.23 9.58 12.15 11.17 30.94 13.3 45.69 31.89-1.09 64.05 18.12 74.22 48.78 10.17 30.65 2.17 67.49-28.99 83.45-31.16 15.95-78.54 5.98-113.23 8.77-34.69 2.79-67.67-8.23-93.25-28.75s-46.53-33.98-76.73-45.27c-30.19-11.3-72.72-10.77-100.32 5.72-27.61 16.48-45.89 38.09-53.7 68.3-39.1 7.14-81.42-12.73-91-52-9.58-39.26 17.43-81.17 58-83-3.38-42.71 25.92-81.68 65-96 4.49 35.59 26 71.46 11 108 40.71-23.75 44.17-71.93 44.02-113.98-.14-42.04 23.08-76.92 57.29-100.71 34.2-23.8 87.24-23.86 124.69-6.31 8.71-21.66 23.44-41.07 41-57Z"/><path fill="#193F6C" stroke="#193F6C" d="M653 474c-7.22-37.5-12.71-83.08-21.67-119.33s-33.77-59.96-68.32-72.68c-34.56-12.72-78.42-3.81-106.76 21.26-28.34 25.06-40.91 65.76-33.18 103.68 7.73 37.91-3.9 78.63-29.07 107.07 31.35-5.47 63.63.34 92 12-4.08-23.89-1.59-50.27 0-74 12.45 63.01 79.29 96.44 134 115-2.19-11.25-3.59-22.56-5-34-1.41-11.44-.84-24.59-2.02-35.98-1.18-11.39-1.36-24.08-2.98-35.02-1.62-10.94.76-26.97-2.22-36.78-2.99-9.8-17.9-7.99-25.08-12.91-7.19-4.93-16.78-8.04-21.78-16.23-5.01-8.18-12.32-12.73-16.92-21.08 25.94 6.09 51.23 14.45 77 21 .3 11.11 3.4 23.68 2 35s.22 21.7 9.75 27.25c9.53 5.55 10.83 11.13 20.25 15.75ZM147 687c-7.74 1.65-17.23 1.65-25 0v94h18c.66-19.85-1.33-40.9 1-60 6.01 19.44 13 38.58 19 58 3.88-2.04 8.7-.55 13-1 6.84-18.65 10.15-40.83 20-57-1.47 19.62-.36 39.17-1 60h19v-93h-26c-5.67 20.47-11.43 41.43-19 61-5.85-20.81-12.61-41.35-19-62ZM376 687c-5.4 1.19-12.71-1.62-17.92.08-5.2 1.71-.42 12.05-2.08 15.92h20v-16ZM678 717c5.94-31.61-45.04-40-59.75-19.75-14.72 20.25-16.1 58.19 1.5 77 17.61 18.81 62.78 5.63 60.25-23.25h-20c-.14 8.34-5.21 15.52-14 16-8.78.48-14.71-5.73-16.22-13.78-1.51-8.05-2.38-20.17-1.76-28.2.63-8.02 2.84-16.8 8.75-21.25 5.92-4.45 18.22-4.94 20.45 4.01 2.24 8.94 9.87 11.65 20.78 9.22ZM705 688h-18v93h18v-93ZM904 688h-20c2.29 10.14.36 21.41 1 32-9.4-12.36-30.76-10.09-36.69 4.31-5.94 14.39-6.11 32.85.39 47 6.49 14.14 26.57 14.7 36.3 3.69-.2 9.82 12.02 4.83 19 6v-93Zm-28 37c8.96 1.5 8.33 17.01 9 24 .67 6.99-2.88 22.25-13 20-10.12-2.25-8.78-16.21-9-24-.22-7.79 2.75-21.71 13-20ZM277 781c-5.68-17.81 6.98-50.56-7.77-64.23-14.76-13.67-45.79-3.03-46.23 16.23 6.26-.67 11.75 1.67 18 1-.46-15.78 22.86-9.17 17 5-17.15-.72-40.1 5.5-37.98 25.98 2.13 20.47 26.15 21.82 37.98 11.02.65 8.78 12.44 3.65 19 5Zm-19-31c4.49 10.27-6.65 27.7-17.25 17.25-10.6-10.46 8.71-18.52 17.25-17.25ZM438 721c-7.48-12.2-25.34-11.23-34-1-.13-2.76.83-7.09-2-7-5.09-.15-11.18 1.14-16 0v68h18c.22-15.4-.6-27.88.67-43.33S423.81 725.08 422 740c-1.8 14.92 4.25 26.54 0 41h19c-.53-15.23.71-26.36 0-42s19.61-14.64 17 1c-2.61 15.64 1.96 25.85 0 41h19c-1.38-18.32 2.72-39.62-2.08-56.92-4.79-17.31-27.93-13.53-36.92-3.08ZM584 734c10.13 1.54 18.9-2.8 13.92-11.92-4.97-9.13-11.21-9.09-19.92-10.08-8.71-.99-16.85 1.54-22.75 7.25-5.9 5.71-6.71 15.99-3.5 23 3.2 7.02 12.11 10.25 19.03 10.97 6.91.72 18.7 6.09 12.47 14.03-6.23 7.93-17.93-.25-16.25-8.25-6.06.48-11.85 1.94-18 2-1.23 11.05 8.59 20.34 19 21 10.41.66 24.11.72 30.75-8.25 6.63-8.98 5.02-20.32-2.52-27.98-7.54-7.66-21.34-1.62-27.91-11.09-6.57-9.48 19.15-16.29 15.68-.68Z"/><path fill="#193F6C" stroke="#193F6C" d="M749 712c-40.52-5.79-52.17 60.59-12 70 40.17 9.41 51.75-64.32 12-70Zm-1 13c9.02 2.74 6.99 19.76 7 27 .01 7.24-3.53 23.82-16.07 17.07-12.55-6.75-12.59-50.64 9.07-44.07ZM318 735c-4.78-4.86-6.19-11.02-10.08-17.92-3.88-6.9-16.25-3.28-23.92-4.08 6.79 11.67 15.2 22.31 22 34-8.01 10.85-15.25 22.71-23 34 7.56-.57 20.53 2.79 24.08-4.92 3.54-7.71 5.38-11.58 9.92-18.08 3.54 6.82 5.76 12.3 9.75 19.25 3.98 6.96 17.05 2.55 24.25 3.75-8.26-11.86-16.47-23.68-24-36 8.5-9.59 14.92-21.21 22-32-5.82 2.14-18.11-3.55-22.23 2.77-4.12 6.33-5.96 12.52-8.77 19.23ZM376 713c-6.26.58-13.15-1.21-19 1 2.33 21.8.34 44.75 1 67h18v-68ZM505 714c-5.76-2.51-13.48.02-19-1 1.64 18.04-2.72 40.55 1.23 57.77 3.95 17.22 28.35 13.63 36.77 3.23-2.81 11.74 12.25 5.44 19 7v-68h-19c.14 14.91-.18 29-.01 43.99.18 14.99-21.43 13.71-19.99-.99 1.44-14.7-1.9-27.92 1-42Z"/><path fill="#193F6C" stroke="#193F6C" d="M799 713c-6.26.58-13.15-1.21-19 1 1.06 17.57-.01 33.02 1.02 51.98 1.04 18.95 28.24 21.55 37.98 8.02-2.89 11.44 11.42 5.62 18 7v-68h-18c-.28 14.78.4 29.1-.07 43.93-.48 14.83-21.81 14.19-19.93-.93 1.88-15.12-1.41-28.08 0-43Z"/></svg>