<svg width="784" height="605" viewBox="0 0 784 605" fill="none" xmlns="http://www.w3.org/2000/svg">
<path d="M507 36.3889C496.78 28.6345 488.38 22.4488 476.69 16.7129C465.01 10.967 452.19 7.1497 439.07 4.34169C425.96 1.53369 405.91 0.2646 392.02 1.43377C378.14 2.61293 364.56 6.42023 352.22 10.6272C339.89 14.8442 329.04 20.3204 318.23 26.6259C307.42 32.9314 298.9 39.7865 289.75 48.1306C280.6 56.4747 273.65 63.9494 266.25 73.6125C258.85 83.2657 252.59 93.3085 247.31 104.65C242.02 115.982 237.17 129.173 234.33 141.644C231.49 154.115 232.8 173.881 218.68 175.97C204.56 178.058 197.13 186.123 186.08 192.358C175.04 198.604 168.58 207.318 160.25 216.511C151.93 225.715 147.13 237.176 141.78 248.019C136.42 258.851 137.73 276.199 126.08 281.295C114.42 286.381 106.24 293.247 97.77 302.97C89.3 312.693 84.45 322.516 79.32 334.497C74.19 346.479 72.83 362.907 74 376.148C75.17 389.388 78.51 403.698 85.08 415.04C91.64 426.392 96.91 434.446 107.25 442.85C117.59 451.254 125.93 456.081 138.77 461.317C151.62 466.553 166.49 467.653 182 467.083C197.51 466.514 215.9 467.343 232 467.083C248.1 466.823 265.67 467.203 282 467.083C298.33 466.963 314.56 467.133 331 467.083C347.44 467.033 364.5 467.103 381 467.083C397.5 467.063 414.56 467.083 431 467.083C447.44 467.083 463.66 467.063 480 467.083C496.34 467.103 513.86 467.043 530 467.083C546.14 467.123 564.4 466.983 580 467.083C595.6 467.183 613.42 467.873 626.98 464.065C640.53 460.258 649.26 455.871 659.75 447.847C670.25 439.832 676.53 432.608 683.7 421.815C690.87 411.013 694.69 398.182 697.01 385.151C699.33 372.121 697.9 353.544 693.93 341.242C689.95 328.951 683.97 318.758 676.77 308.426C669.57 298.093 661.64 290.818 651.25 283.963C640.86 277.118 628.43 272.012 616 270.223C607.94 226.974 570.37 190.949 529 178.288C531.12 194.187 530.97 214.253 545.92 221.338C560.86 228.423 566.11 238.396 575.7 250.547C585.28 262.688 586.87 281.465 589 296.204C620.89 295.115 653.05 314.312 663.22 344.95C673.39 375.578 665.39 412.392 634.23 428.341C603.07 444.279 555.69 434.316 521 437.104C486.31 439.892 453.33 428.88 427.75 408.375C402.17 387.869 381.22 374.419 351.02 363.137C320.83 351.845 278.3 352.375 250.7 368.853C223.09 385.321 204.81 406.916 197 437.104C157.9 444.239 115.58 424.383 106 385.141C96.42 345.909 123.43 304.029 164 302.2C160.62 259.52 189.92 220.578 229 206.268C233.49 241.833 255 277.678 240 314.192C280.71 290.459 284.17 242.313 284.02 200.293C283.88 158.282 307.1 123.427 341.31 99.654C375.51 75.8709 428.55 75.8109 466 93.3485C474.71 71.7039 489.44 52.3076 507 36.3889Z" stroke="#193F6C" stroke-width="0.3"/>
<path d="M532 295.205C524.78 257.732 519.29 212.184 510.33 175.96C501.37 139.736 476.56 116.042 442.01 103.331C407.45 90.6204 363.59 99.5241 335.25 124.576C306.91 149.619 294.34 190.29 302.07 228.183C309.8 266.066 298.17 306.757 273 335.177C304.35 329.711 336.63 335.517 365 347.168C360.92 323.295 363.41 296.934 365 273.221C377.45 336.186 444.29 369.592 499 388.139C496.81 376.897 495.41 365.595 494 354.163C492.59 342.731 493.16 329.591 491.98 318.209C490.8 306.827 490.62 294.146 489 283.214C487.38 272.281 489.76 256.263 486.78 246.46C483.79 236.667 468.88 238.475 461.7 233.559C454.51 228.632 444.92 225.525 439.92 217.34C434.91 209.166 427.6 204.619 423 196.275C448.94 202.361 474.23 210.715 500 217.261C500.3 228.363 503.4 240.924 502 252.236C500.6 263.548 502.22 273.92 511.75 279.466C521.28 285.012 522.58 290.588 532 295.205Z" stroke="#193F6C" stroke-width="0.3"/>
<path d="M26 508.054C18.26 509.703 8.77 509.703 1 508.054C1 539.362 1 570.68 1 601.987C7 601.987 13 601.987 19 601.987C19.66 582.151 17.67 561.116 20 542.03C26.01 561.456 33 580.583 39 599.989C42.88 597.95 47.7 599.439 52 598.989C58.84 580.353 62.15 558.188 72 542.03C70.53 561.636 71.64 581.172 71 601.987C77.33 601.987 83.67 601.987 90 601.987C90 571.009 90 540.031 90 509.053C81.33 509.053 72.67 509.053 64 509.053C58.33 529.509 52.57 550.454 45 570.01C39.15 549.215 32.39 528.689 26 508.054Z" stroke="#193F6C" stroke-width="0.3"/>
<path d="M255 508.054C249.6 509.243 242.29 506.435 237.08 508.134C231.88 509.843 236.66 520.175 235 524.043C241.67 524.043 248.33 524.043 255 524.043C255 518.716 255 513.38 255 508.054Z" stroke="#193F6C" stroke-width="0.3"/>
<path d="M557 538.033C562.94 506.445 511.96 498.061 497.25 518.297C482.53 538.532 481.15 576.445 498.75 595.242C516.36 614.039 561.53 600.868 559 572.009C552.33 572.009 545.67 572.009 539 572.009C538.86 580.343 533.79 587.518 525 587.997C516.22 588.477 510.29 582.271 508.78 574.227C507.27 566.183 506.4 554.071 507.02 546.047C507.65 538.033 509.86 529.259 515.77 524.812C521.69 520.365 533.99 519.876 536.22 528.819C538.46 537.753 546.09 540.461 557 538.033Z" stroke="#193F6C" stroke-width="0.3"/>
<path d="M584 509.053C578 509.053 572 509.053 566 509.053C566 540.031 566 571.009 566 601.987C572 601.987 578 601.987 584 601.987C584 571.009 584 540.031 584 509.053Z" stroke="#193F6C" stroke-width="0.3"/>
<path d="M783 509.053C776.33 509.053 769.67 509.053 763 509.053C765.29 519.186 763.36 530.448 764 541.031C754.6 528.679 733.24 530.948 727.31 545.338C721.37 559.717 721.2 578.164 727.7 592.304C734.19 606.434 754.27 606.994 764 595.992C763.8 605.805 776.02 600.818 783 601.987C783 571.009 783 540.031 783 509.053ZM755 546.027C763.96 547.526 763.33 563.025 764 570.01C764.67 576.995 761.12 592.244 751 589.996C740.88 587.747 742.22 573.797 742 566.013C741.78 558.228 744.75 544.318 755 546.027Z" stroke="#193F6C" stroke-width="0.3"/>
<path d="M156 601.987C150.32 584.19 162.98 551.463 148.23 537.803C133.47 524.143 102.44 534.775 102 554.021C108.26 553.352 113.75 555.69 120 555.021C119.54 539.252 142.86 545.857 137 560.017C119.85 559.298 96.9 565.513 99.02 585.979C101.15 606.434 125.17 607.783 137 596.991C137.65 605.765 149.44 600.638 156 601.987ZM137 571.009C141.49 581.272 130.35 598.69 119.75 588.247C109.15 577.795 128.46 569.74 137 571.009Z" stroke="#193F6C" stroke-width="0.3"/>
<path d="M317 542.03C309.52 529.839 291.66 530.808 283 541.031C282.87 538.273 283.83 533.946 281 534.036C275.91 533.886 269.82 535.175 265 534.036C265 556.69 265 579.333 265 601.987C271 601.987 277 601.987 283 601.987C283.22 586.598 282.4 574.127 283.67 558.688C284.94 543.249 302.81 546.107 301 561.016C299.2 575.926 305.25 587.538 301 601.987C307.33 601.987 313.67 601.987 320 601.987C319.47 586.768 320.71 575.646 320 560.017C319.29 544.388 339.61 545.388 337 561.016C334.39 576.645 338.96 586.848 337 601.987C343.33 601.987 349.67 601.987 356 601.987C354.62 583.68 358.72 562.395 353.92 545.108C349.13 527.81 325.99 531.587 317 542.03Z" stroke="#193F6C" stroke-width="0.3"/>
<path d="M463 555.021C473.13 556.56 481.9 552.223 476.92 543.109C471.95 533.986 465.71 534.026 457 533.036C448.29 532.047 440.15 534.575 434.25 540.281C428.35 545.987 427.54 556.26 430.75 563.265C433.95 570.28 442.86 573.508 449.78 574.227C456.69 574.947 468.48 580.313 462.25 588.247C456.02 596.171 444.32 587.997 446 580.003C439.94 580.483 434.15 581.942 428 582.002C426.77 593.044 436.59 602.327 447 602.987C457.41 603.646 471.11 603.706 477.75 594.742C484.38 585.769 482.77 574.437 475.23 566.782C467.69 559.128 453.89 565.163 447.32 555.7C440.75 546.227 466.47 539.422 463 555.021Z" stroke="#193F6C" stroke-width="0.3"/>
<path d="M628 533.036C587.48 527.25 575.83 593.583 616 602.987C656.17 612.39 667.75 538.712 628 533.036ZM627 546.027C636.02 548.765 633.99 565.773 634 573.008C634.01 580.243 630.47 596.811 617.93 590.066C605.38 583.321 605.34 539.462 627 546.027Z" stroke="#193F6C" stroke-width="0.3"/>
<path d="M197 556.02C192.22 551.163 190.81 545.008 186.92 538.113C183.04 531.218 170.67 534.835 163 534.036C169.79 545.697 178.2 556.33 185 568.011C176.99 578.854 169.75 590.705 162 601.987C169.56 601.418 182.53 604.775 186.08 597.071C189.62 589.366 191.46 585.499 196 579.004C199.54 585.819 201.76 591.295 205.75 598.24C209.73 605.195 222.8 600.788 230 601.987C221.74 590.136 213.53 578.324 206 566.013C214.5 556.43 220.92 544.818 228 534.036C222.18 536.174 209.89 530.488 205.77 536.804C201.65 543.129 199.81 549.315 197 556.02Z" stroke="#193F6C" stroke-width="0.3"/>
<path d="M255 534.036C248.74 534.615 241.85 532.826 236 535.035C238.33 556.819 236.34 579.753 237 601.987C243 601.987 249 601.987 255 601.987C255 579.333 255 556.69 255 534.036Z" stroke="#193F6C" stroke-width="0.3"/>
<path d="M384 535.035C378.24 532.527 370.52 535.055 365 534.036C366.64 552.063 362.28 574.557 366.23 591.765C370.18 608.972 394.58 605.385 403 594.992C400.19 606.724 415.25 600.428 422 601.987C422 579.333 422 556.69 422 534.036C415.67 534.036 409.33 534.036 403 534.036C403.14 548.935 402.82 563.015 402.99 577.994C403.17 592.974 381.56 591.695 383 577.005C384.44 562.316 381.1 549.105 384 535.035Z" stroke="#193F6C" stroke-width="0.3"/>
<path d="M678 534.036C671.74 534.615 664.85 532.826 659 535.035C660.06 552.592 658.99 568.031 660.02 586.978C661.06 605.915 688.26 608.513 698 594.992C695.11 606.424 709.42 600.608 716 601.987C716 579.333 716 556.69 716 534.036C710 534.036 704 534.036 698 534.036C697.72 548.805 698.4 563.115 697.93 577.934C697.45 592.754 676.12 592.114 678 577.005C679.88 561.896 676.59 548.945 678 534.036Z" stroke="#193F6C" stroke-width="0.3"/>
<path d="M507 36.3889C496.78 28.6345 488.38 22.4488 476.69 16.7129C465.01 10.967 452.19 7.1497 439.07 4.34169C425.96 1.53369 405.91 0.2646 392.02 1.43377C378.14 2.61293 364.56 6.42023 352.22 10.6272C339.89 14.8442 329.04 20.3204 318.23 26.6259C307.42 32.9314 298.9 39.7865 289.75 48.1306C280.6 56.4747 273.65 63.9494 266.25 73.6125C258.85 83.2657 252.59 93.3085 247.31 104.65C242.02 115.982 237.17 129.173 234.33 141.644C231.49 154.115 232.8 173.881 218.68 175.97C204.56 178.058 197.13 186.123 186.08 192.358C175.04 198.604 168.58 207.318 160.25 216.511C151.93 225.715 147.13 237.176 141.78 248.019C136.42 258.851 137.73 276.199 126.08 281.295C114.42 286.381 106.24 293.247 97.77 302.97C89.3 312.693 84.45 322.516 79.32 334.497C74.19 346.479 72.83 362.907 74 376.148C75.17 389.388 78.51 403.698 85.08 415.04C91.64 426.392 96.91 434.446 107.25 442.85C117.59 451.254 125.93 456.081 138.77 461.317C151.62 466.553 166.49 467.653 182 467.083C197.51 466.514 215.9 467.343 232 467.083C248.1 466.823 265.67 467.203 282 467.083C298.33 466.963 314.56 467.133 331 467.083C347.44 467.033 364.5 467.103 381 467.083C397.5 467.063 414.56 467.083 431 467.083C447.44 467.083 463.66 467.063 480 467.083C496.34 467.103 513.86 467.043 530 467.083C546.14 467.123 564.4 466.983 580 467.083C595.6 467.183 613.42 467.873 626.98 464.065C640.53 460.258 649.26 455.871 659.75 447.847C670.25 439.832 676.53 432.608 683.7 421.815C690.87 411.013 694.69 398.182 697.01 385.151C699.33 372.121 697.9 353.544 693.93 341.242C689.95 328.951 683.97 318.758 676.77 308.426C669.57 298.093 661.64 290.818 651.25 283.963C640.86 277.118 628.43 272.012 616 270.223C607.94 226.974 570.37 190.949 529 178.288C531.12 194.187 530.97 214.253 545.92 221.338C560.86 228.423 566.11 238.396 575.7 250.547C585.28 262.688 586.87 281.465 589 296.204C620.89 295.115 653.05 314.312 663.22 344.95C673.39 375.578 665.39 412.392 634.23 428.341C603.07 444.279 555.69 434.316 521 437.104C486.31 439.892 453.33 428.88 427.75 408.375C402.17 387.869 381.22 374.419 351.02 363.137C320.83 351.845 278.3 352.375 250.7 368.853C223.09 385.321 204.81 406.916 197 437.104C157.9 444.239 115.58 424.383 106 385.141C96.42 345.909 123.43 304.029 164 302.2C160.62 259.52 189.92 220.578 229 206.268C233.49 241.833 255 277.678 240 314.192C280.71 290.459 284.17 242.313 284.02 200.293C283.88 158.282 307.1 123.427 341.31 99.654C375.51 75.8709 428.55 75.8109 466 93.3485C474.71 71.7039 489.44 52.3076 507 36.3889Z" fill="#193F6C" stroke="#193F6C"/>
<path d="M532 295.205C524.78 257.732 519.29 212.184 510.33 175.96C501.37 139.736 476.56 116.042 442.01 103.331C407.45 90.6204 363.59 99.5241 335.25 124.576C306.91 149.619 294.34 190.29 302.07 228.183C309.8 266.066 298.17 306.757 273 335.177C304.35 329.711 336.63 335.517 365 347.168C360.92 323.295 363.41 296.934 365 273.221C377.45 336.186 444.29 369.592 499 388.139C496.81 376.897 495.41 365.595 494 354.163C492.59 342.731 493.16 329.591 491.98 318.209C490.8 306.827 490.62 294.146 489 283.214C487.38 272.281 489.76 256.263 486.78 246.46C483.79 236.667 468.88 238.475 461.7 233.559C454.51 228.632 444.92 225.525 439.92 217.34C434.91 209.166 427.6 204.619 423 196.275C448.94 202.361 474.23 210.715 500 217.261C500.3 228.363 503.4 240.924 502 252.236C500.6 263.548 502.22 273.92 511.75 279.466C521.28 285.012 522.58 290.588 532 295.205Z" fill="#193F6C" stroke="#193F6C"/>
<path d="M26 508.054C18.26 509.703 8.77 509.703 1 508.054C1 539.362 1 570.68 1 601.987C7 601.987 13 601.987 19 601.987C19.66 582.151 17.67 561.116 20 542.03C26.01 561.456 33 580.583 39 599.989C42.88 597.95 47.7 599.439 52 598.989C58.84 580.353 62.15 558.188 72 542.03C70.53 561.636 71.64 581.172 71 601.987C77.33 601.987 83.67 601.987 90 601.987C90 571.009 90 540.031 90 509.053C81.33 509.053 72.67 509.053 64 509.053C58.33 529.509 52.57 550.454 45 570.01C39.15 549.215 32.39 528.689 26 508.054Z" fill="#193F6C" stroke="#193F6C"/>
<path d="M255 508.054C249.6 509.243 242.29 506.435 237.08 508.134C231.88 509.843 236.66 520.175 235 524.043C241.67 524.043 248.33 524.043 255 524.043C255 518.716 255 513.38 255 508.054Z" fill="#193F6C" stroke="#193F6C"/>
<path d="M557 538.033C562.94 506.445 511.96 498.061 497.25 518.297C482.53 538.532 481.15 576.445 498.75 595.242C516.36 614.039 561.53 600.868 559 572.009C552.33 572.009 545.67 572.009 539 572.009C538.86 580.343 533.79 587.518 525 587.997C516.22 588.477 510.29 582.271 508.78 574.227C507.27 566.183 506.4 554.071 507.02 546.047C507.65 538.033 509.86 529.259 515.77 524.812C521.69 520.365 533.99 519.876 536.22 528.819C538.46 537.753 546.09 540.461 557 538.033Z" fill="#193F6C" stroke="#193F6C"/>
<path d="M584 509.053C578 509.053 572 509.053 566 509.053C566 540.031 566 571.009 566 601.987C572 601.987 578 601.987 584 601.987C584 571.009 584 540.031 584 509.053Z" fill="#193F6C" stroke="#193F6C"/>
<path d="M783 509.053C776.33 509.053 769.67 509.053 763 509.053C765.29 519.186 763.36 530.448 764 541.031C754.6 528.679 733.24 530.948 727.31 545.338C721.37 559.717 721.2 578.164 727.7 592.304C734.19 606.434 754.27 606.994 764 595.992C763.8 605.805 776.02 600.818 783 601.987C783 571.009 783 540.031 783 509.053ZM755 546.027C763.96 547.526 763.33 563.025 764 570.01C764.67 576.995 761.12 592.244 751 589.996C740.88 587.747 742.22 573.797 742 566.013C741.78 558.228 744.75 544.318 755 546.027Z" fill="#193F6C" stroke="#193F6C"/>
<path d="M156 601.987C150.32 584.19 162.98 551.463 148.23 537.803C133.47 524.143 102.44 534.775 102 554.021C108.26 553.352 113.75 555.69 120 555.021C119.54 539.252 142.86 545.857 137 560.017C119.85 559.298 96.9 565.513 99.02 585.979C101.15 606.434 125.17 607.783 137 596.991C137.65 605.765 149.44 600.638 156 601.987ZM137 571.009C141.49 581.272 130.35 598.69 119.75 588.247C109.15 577.795 128.46 569.74 137 571.009Z" fill="#193F6C" stroke="#193F6C"/>
<path d="M317 542.03C309.52 529.839 291.66 530.808 283 541.031C282.87 538.273 283.83 533.946 281 534.036C275.91 533.886 269.82 535.175 265 534.036C265 556.69 265 579.333 265 601.987C271 601.987 277 601.987 283 601.987C283.22 586.598 282.4 574.127 283.67 558.688C284.94 543.249 302.81 546.107 301 561.016C299.2 575.926 305.25 587.538 301 601.987C307.33 601.987 313.67 601.987 320 601.987C319.47 586.768 320.71 575.646 320 560.017C319.29 544.388 339.61 545.388 337 561.016C334.39 576.645 338.96 586.848 337 601.987C343.33 601.987 349.67 601.987 356 601.987C354.62 583.68 358.72 562.395 353.92 545.108C349.13 527.81 325.99 531.587 317 542.03Z" fill="#193F6C" stroke="#193F6C"/>
<path d="M463 555.021C473.13 556.56 481.9 552.223 476.92 543.109C471.95 533.986 465.71 534.026 457 533.036C448.29 532.047 440.15 534.575 434.25 540.281C428.35 545.987 427.54 556.26 430.75 563.265C433.95 570.28 442.86 573.508 449.78 574.227C456.69 574.947 468.48 580.313 462.25 588.247C456.02 596.171 444.32 587.997 446 580.003C439.94 580.483 434.15 581.942 428 582.002C426.77 593.044 436.59 602.327 447 602.987C457.41 603.646 471.11 603.706 477.75 594.742C484.38 585.769 482.77 574.437 475.23 566.782C467.69 559.128 453.89 565.163 447.32 555.7C440.75 546.227 466.47 539.422 463 555.021Z" fill="#193F6C" stroke="#193F6C"/>
<path d="M628 533.036C587.48 527.25 575.83 593.583 616 602.987C656.17 612.39 667.75 538.712 628 533.036ZM627 546.027C636.02 548.765 633.99 565.773 634 573.008C634.01 580.243 630.47 596.811 617.93 590.066C605.38 583.321 605.34 539.462 627 546.027Z" fill="#193F6C" stroke="#193F6C"/>
<path d="M197 556.02C192.22 551.163 190.81 545.008 186.92 538.113C183.04 531.218 170.67 534.835 163 534.036C169.79 545.697 178.2 556.33 185 568.011C176.99 578.854 169.75 590.705 162 601.987C169.56 601.418 182.53 604.775 186.08 597.071C189.62 589.366 191.46 585.499 196 579.004C199.54 585.819 201.76 591.295 205.75 598.24C209.73 605.195 222.8 600.788 230 601.987C221.74 590.136 213.53 578.324 206 566.013C214.5 556.43 220.92 544.818 228 534.036C222.18 536.174 209.89 530.488 205.77 536.804C201.65 543.129 199.81 549.315 197 556.02Z" fill="#193F6C" stroke="#193F6C"/>
<path d="M255 534.036C248.74 534.615 241.85 532.826 236 535.035C238.33 556.819 236.34 579.753 237 601.987C243 601.987 249 601.987 255 601.987C255 579.333 255 556.69 255 534.036Z" fill="#193F6C" stroke="#193F6C"/>
<path d="M384 535.035C378.24 532.527 370.52 535.055 365 534.036C366.64 552.063 362.28 574.557 366.23 591.765C370.18 608.972 394.58 605.385 403 594.992C400.19 606.724 415.25 600.428 422 601.987C422 579.333 422 556.69 422 534.036C415.67 534.036 409.33 534.036 403 534.036C403.14 548.935 402.82 563.015 402.99 577.994C403.17 592.974 381.56 591.695 383 577.005C384.44 562.316 381.1 549.105 384 535.035Z" fill="#193F6C" stroke="#193F6C"/>
<path d="M678 534.036C671.74 534.615 664.85 532.826 659 535.035C660.06 552.592 658.99 568.031 660.02 586.978C661.06 605.915 688.26 608.513 698 594.992C695.11 606.424 709.42 600.608 716 601.987C716 579.333 716 556.69 716 534.036C710 534.036 704 534.036 698 534.036C697.72 548.805 698.4 563.115 697.93 577.934C697.45 592.754 676.12 592.114 678 577.005C679.88 561.896 676.59 548.945 678 534.036Z" fill="#193F6C" stroke="#193F6C"/>
</svg>
