<svg width="1024" height="1024" viewBox="0 0 1024 1024" fill="none" xmlns="http://www.w3.org/2000/svg">
<path d="M628 215C617.78 207.24 609.38 201.05 597.69 195.31C586.01 189.56 573.19 185.74 560.07 182.93C546.96 180.12 526.91 178.85 513.02 180.02C499.14 181.2 485.56 185.01 473.22 189.22C460.89 193.44 450.04 198.92 439.23 205.23C428.42 211.54 419.9 218.4 410.75 226.75C401.6 235.1 394.65 242.58 387.25 252.25C379.85 261.91 373.59 271.96 368.31 283.31C363.02 294.65 358.17 307.85 355.33 320.33C352.49 332.81 353.8 352.59 339.68 354.68C325.56 356.77 318.13 364.84 307.08 371.08C296.04 377.33 289.58 386.05 281.25 395.25C272.93 404.46 268.13 415.93 262.78 426.78C257.42 437.62 258.73 454.98 247.08 460.08C235.42 465.17 227.24 472.04 218.77 481.77C210.3 491.5 205.45 501.33 200.32 513.32C195.19 525.31 193.83 541.75 195 555C196.17 568.25 199.51 582.57 206.08 593.92C212.64 605.28 217.91 613.34 228.25 621.75C238.59 630.16 246.93 634.99 259.77 640.23C272.62 645.47 287.49 646.57 303 646C318.51 645.43 336.9 646.26 353 646C369.1 645.74 386.67 646.12 403 646C419.33 645.88 435.56 646.05 452 646C468.44 645.95 485.5 646.02 502 646C518.5 645.98 535.56 646 552 646C568.44 646 584.66 645.98 601 646C617.34 646.02 634.86 645.96 651 646C667.14 646.04 685.4 645.9 701 646C716.6 646.1 734.42 646.79 747.98 642.98C761.53 639.17 770.26 634.78 780.75 626.75C791.25 618.73 797.53 611.5 804.7 600.7C811.87 589.89 815.69 577.05 818.01 564.01C820.33 550.97 818.9 532.38 814.93 520.07C810.95 507.77 804.97 497.57 797.77 487.23C790.57 476.89 782.64 469.61 772.25 462.75C761.86 455.9 749.43 450.79 737 449C728.94 405.72 691.37 369.67 650 357C652.12 372.91 651.97 392.99 666.92 400.08C681.86 407.17 687.11 417.15 696.7 429.31C706.28 441.46 707.87 460.25 710 475C741.89 473.91 774.05 493.12 784.22 523.78C794.39 554.43 786.39 591.27 755.23 607.23C724.07 623.18 676.69 613.21 642 616C607.31 618.79 574.33 607.77 548.75 587.25C523.17 566.73 502.22 553.27 472.02 541.98C441.83 530.68 399.3 531.21 371.7 547.7C344.09 564.18 325.81 585.79 318 616C278.9 623.14 236.58 603.27 227 564C217.42 524.74 244.43 482.83 285 481C281.62 438.29 310.92 399.32 350 385C354.49 420.59 376 456.46 361 493C401.71 469.25 405.17 421.07 405.02 379.02C404.88 336.98 428.1 302.1 462.31 278.31C496.51 254.51 549.55 254.45 587 272C595.71 250.34 610.44 230.93 628 215Z" stroke="#193F6C" stroke-width="0.3"/>
<path d="M653 474C645.78 436.5 640.29 390.92 631.33 354.67C622.37 318.42 597.56 294.71 563.01 281.99C528.45 269.27 484.59 278.18 456.25 303.25C427.91 328.31 415.34 369.01 423.07 406.93C430.8 444.84 419.17 485.56 394 514C425.35 508.53 457.63 514.34 486 526C481.92 502.11 484.41 475.73 486 452C498.45 515.01 565.29 548.44 620 567C617.81 555.75 616.41 544.44 615 533C613.59 521.56 614.16 508.41 612.98 497.02C611.8 485.63 611.62 472.94 610 462C608.38 451.06 610.76 435.03 607.78 425.22C604.79 415.42 589.88 417.23 582.7 412.31C575.51 407.38 565.92 404.27 560.92 396.08C555.91 387.9 548.6 383.35 544 375C569.94 381.09 595.23 389.45 621 396C621.3 407.11 624.4 419.68 623 431C621.6 442.32 623.22 452.7 632.75 458.25C642.28 463.8 643.58 469.38 653 474Z" stroke="#193F6C" stroke-width="0.3"/>
<path d="M147 687C139.26 688.65 129.77 688.65 122 687C122 718.33 122 749.67 122 781C128 781 134 781 140 781C140.66 761.15 138.67 740.1 141 721C147.01 740.44 154 759.58 160 779C163.88 776.96 168.7 778.45 173 778C179.84 759.35 183.15 737.17 193 721C191.53 740.62 192.64 760.17 192 781C198.33 781 204.67 781 211 781C211 750 211 719 211 688C202.33 688 193.67 688 185 688C179.33 708.47 173.57 729.43 166 749C160.15 728.19 153.39 707.65 147 687Z" stroke="#193F6C" stroke-width="0.3"/>
<path d="M376 687C370.6 688.19 363.29 685.38 358.08 687.08C352.88 688.79 357.66 699.13 356 703C362.67 703 369.33 703 376 703C376 697.67 376 692.33 376 687Z" stroke="#193F6C" stroke-width="0.3"/>
<path d="M678 717C683.94 685.39 632.96 677 618.25 697.25C603.53 717.5 602.15 755.44 619.75 774.25C637.36 793.06 682.53 779.88 680 751C673.33 751 666.67 751 660 751C659.86 759.34 654.79 766.52 646 767C637.22 767.48 631.29 761.27 629.78 753.22C628.27 745.17 627.4 733.05 628.02 725.02C628.65 717 630.86 708.22 636.77 703.77C642.69 699.32 654.99 698.83 657.22 707.78C659.46 716.72 667.09 719.43 678 717Z" stroke="#193F6C" stroke-width="0.3"/>
<path d="M705 688C699 688 693 688 687 688C687 719 687 750 687 781C693 781 699 781 705 781C705 750 705 719 705 688Z" stroke="#193F6C" stroke-width="0.3"/>
<path d="M904 688C897.33 688 890.67 688 884 688C886.29 698.14 884.36 709.41 885 720C875.6 707.64 854.24 709.91 848.31 724.31C842.37 738.7 842.2 757.16 848.7 771.31C855.19 785.45 875.27 786.01 885 775C884.8 784.82 897.02 779.83 904 781C904 750 904 719 904 688ZM876 725C884.96 726.5 884.33 742.01 885 749C885.67 755.99 882.12 771.25 872 769C861.88 766.75 863.22 752.79 863 745C862.78 737.21 865.75 723.29 876 725Z" stroke="#193F6C" stroke-width="0.3"/>
<path d="M277 781C271.32 763.19 283.98 730.44 269.23 716.77C254.47 703.1 223.44 713.74 223 733C229.26 732.33 234.75 734.67 241 734C240.54 718.22 263.86 724.83 258 739C240.85 738.28 217.9 744.5 220.02 764.98C222.15 785.45 246.17 786.8 258 776C258.65 784.78 270.44 779.65 277 781ZM258 750C262.49 760.27 251.35 777.7 240.75 767.25C230.15 756.79 249.46 748.73 258 750Z" stroke="#193F6C" stroke-width="0.3"/>
<path d="M438 721C430.52 708.8 412.66 709.77 404 720C403.87 717.24 404.83 712.91 402 713C396.91 712.85 390.82 714.14 386 713C386 735.67 386 758.33 386 781C392 781 398 781 404 781C404.22 765.6 403.4 753.12 404.67 737.67C405.94 722.22 423.81 725.08 422 740C420.2 754.92 426.25 766.54 422 781C428.33 781 434.67 781 441 781C440.47 765.77 441.71 754.64 441 739C440.29 723.36 460.61 724.36 458 740C455.39 755.64 459.96 765.85 458 781C464.33 781 470.67 781 477 781C475.62 762.68 479.72 741.38 474.92 724.08C470.13 706.77 446.99 710.55 438 721Z" stroke="#193F6C" stroke-width="0.3"/>
<path d="M584 734C594.13 735.54 602.9 731.2 597.92 722.08C592.95 712.95 586.71 712.99 578 712C569.29 711.01 561.15 713.54 555.25 719.25C549.35 724.96 548.54 735.24 551.75 742.25C554.95 749.27 563.86 752.5 570.78 753.22C577.69 753.94 589.48 759.31 583.25 767.25C577.02 775.18 565.32 767 567 759C560.94 759.48 555.15 760.94 549 761C547.77 772.05 557.59 781.34 568 782C578.41 782.66 592.11 782.72 598.75 773.75C605.38 764.77 603.77 753.43 596.23 745.77C588.69 738.11 574.89 744.15 568.32 734.68C561.75 725.2 587.47 718.39 584 734Z" stroke="#193F6C" stroke-width="0.3"/>
<path d="M749 712C708.48 706.21 696.83 772.59 737 782C777.17 791.41 788.75 717.68 749 712ZM748 725C757.02 727.74 754.99 744.76 755 752C755.01 759.24 751.47 775.82 738.93 769.07C726.38 762.32 726.34 718.43 748 725Z" stroke="#193F6C" stroke-width="0.3"/>
<path d="M318 735C313.22 730.14 311.81 723.98 307.92 717.08C304.04 710.18 291.67 713.8 284 713C290.79 724.67 299.2 735.31 306 747C297.99 757.85 290.75 769.71 283 781C290.56 780.43 303.53 783.79 307.08 776.08C310.62 768.37 312.46 764.5 317 758C320.54 764.82 322.76 770.3 326.75 777.25C330.73 784.21 343.8 779.8 351 781C342.74 769.14 334.53 757.32 327 745C335.5 735.41 341.92 723.79 349 713C343.18 715.14 330.89 709.45 326.77 715.77C322.65 722.1 320.81 728.29 318 735Z" stroke="#193F6C" stroke-width="0.3"/>
<path d="M376 713C369.74 713.58 362.85 711.79 357 714C359.33 735.8 357.34 758.75 358 781C364 781 370 781 376 781C376 758.33 376 735.67 376 713Z" stroke="#193F6C" stroke-width="0.3"/>
<path d="M505 714C499.24 711.49 491.52 714.02 486 713C487.64 731.04 483.28 753.55 487.23 770.77C491.18 787.99 515.58 784.4 524 774C521.19 785.74 536.25 779.44 543 781C543 758.33 543 735.67 543 713C536.67 713 530.33 713 524 713C524.14 727.91 523.82 742 523.99 756.99C524.17 771.98 502.56 770.7 504 756C505.44 741.3 502.1 728.08 505 714Z" stroke="#193F6C" stroke-width="0.3"/>
<path d="M799 713C792.74 713.58 785.85 711.79 780 714C781.06 731.57 779.99 747.02 781.02 765.98C782.06 784.93 809.26 787.53 819 774C816.11 785.44 830.42 779.62 837 781C837 758.33 837 735.67 837 713C831 713 825 713 819 713C818.72 727.78 819.4 742.1 818.93 756.93C818.45 771.76 797.12 771.12 799 756C800.88 740.88 797.59 727.92 799 713Z" stroke="#193F6C" stroke-width="0.3"/>
<path d="M628 215C617.78 207.24 609.38 201.05 597.69 195.31C586.01 189.56 573.19 185.74 560.07 182.93C546.96 180.12 526.91 178.85 513.02 180.02C499.14 181.2 485.56 185.01 473.22 189.22C460.89 193.44 450.04 198.92 439.23 205.23C428.42 211.54 419.9 218.4 410.75 226.75C401.6 235.1 394.65 242.58 387.25 252.25C379.85 261.91 373.59 271.96 368.31 283.31C363.02 294.65 358.17 307.85 355.33 320.33C352.49 332.81 353.8 352.59 339.68 354.68C325.56 356.77 318.13 364.84 307.08 371.08C296.04 377.33 289.58 386.05 281.25 395.25C272.93 404.46 268.13 415.93 262.78 426.78C257.42 437.62 258.73 454.98 247.08 460.08C235.42 465.17 227.24 472.04 218.77 481.77C210.3 491.5 205.45 501.33 200.32 513.32C195.19 525.31 193.83 541.75 195 555C196.17 568.25 199.51 582.57 206.08 593.92C212.64 605.28 217.91 613.34 228.25 621.75C238.59 630.16 246.93 634.99 259.77 640.23C272.62 645.47 287.49 646.57 303 646C318.51 645.43 336.9 646.26 353 646C369.1 645.74 386.67 646.12 403 646C419.33 645.88 435.56 646.05 452 646C468.44 645.95 485.5 646.02 502 646C518.5 645.98 535.56 646 552 646C568.44 646 584.66 645.98 601 646C617.34 646.02 634.86 645.96 651 646C667.14 646.04 685.4 645.9 701 646C716.6 646.1 734.42 646.79 747.98 642.98C761.53 639.17 770.26 634.78 780.75 626.75C791.25 618.73 797.53 611.5 804.7 600.7C811.87 589.89 815.69 577.05 818.01 564.01C820.33 550.97 818.9 532.38 814.93 520.07C810.95 507.77 804.97 497.57 797.77 487.23C790.57 476.89 782.64 469.61 772.25 462.75C761.86 455.9 749.43 450.79 737 449C728.94 405.72 691.37 369.67 650 357C652.12 372.91 651.97 392.99 666.92 400.08C681.86 407.17 687.11 417.15 696.7 429.31C706.28 441.46 707.87 460.25 710 475C741.89 473.91 774.05 493.12 784.22 523.78C794.39 554.43 786.39 591.27 755.23 607.23C724.07 623.18 676.69 613.21 642 616C607.31 618.79 574.33 607.77 548.75 587.25C523.17 566.73 502.22 553.27 472.02 541.98C441.83 530.68 399.3 531.21 371.7 547.7C344.09 564.18 325.81 585.79 318 616C278.9 623.14 236.58 603.27 227 564C217.42 524.74 244.43 482.83 285 481C281.62 438.29 310.92 399.32 350 385C354.49 420.59 376 456.46 361 493C401.71 469.25 405.17 421.07 405.02 379.02C404.88 336.98 428.1 302.1 462.31 278.31C496.51 254.51 549.55 254.45 587 272C595.71 250.34 610.44 230.93 628 215Z" fill="#193F6C" stroke="#193F6C"/>
<path d="M653 474C645.78 436.5 640.29 390.92 631.33 354.67C622.37 318.42 597.56 294.71 563.01 281.99C528.45 269.27 484.59 278.18 456.25 303.25C427.91 328.31 415.34 369.01 423.07 406.93C430.8 444.84 419.17 485.56 394 514C425.35 508.53 457.63 514.34 486 526C481.92 502.11 484.41 475.73 486 452C498.45 515.01 565.29 548.44 620 567C617.81 555.75 616.41 544.44 615 533C613.59 521.56 614.16 508.41 612.98 497.02C611.8 485.63 611.62 472.94 610 462C608.38 451.06 610.76 435.03 607.78 425.22C604.79 415.42 589.88 417.23 582.7 412.31C575.51 407.38 565.92 404.27 560.92 396.08C555.91 387.9 548.6 383.35 544 375C569.94 381.09 595.23 389.45 621 396C621.3 407.11 624.4 419.68 623 431C621.6 442.32 623.22 452.7 632.75 458.25C642.28 463.8 643.58 469.38 653 474Z" fill="#193F6C" stroke="#193F6C"/>
<path d="M147 687C139.26 688.65 129.77 688.65 122 687C122 718.33 122 749.67 122 781C128 781 134 781 140 781C140.66 761.15 138.67 740.1 141 721C147.01 740.44 154 759.58 160 779C163.88 776.96 168.7 778.45 173 778C179.84 759.35 183.15 737.17 193 721C191.53 740.62 192.64 760.17 192 781C198.33 781 204.67 781 211 781C211 750 211 719 211 688C202.33 688 193.67 688 185 688C179.33 708.47 173.57 729.43 166 749C160.15 728.19 153.39 707.65 147 687Z" fill="#193F6C" stroke="#193F6C"/>
<path d="M376 687C370.6 688.19 363.29 685.38 358.08 687.08C352.88 688.79 357.66 699.13 356 703C362.67 703 369.33 703 376 703C376 697.67 376 692.33 376 687Z" fill="#193F6C" stroke="#193F6C"/>
<path d="M678 717C683.94 685.39 632.96 677 618.25 697.25C603.53 717.5 602.15 755.44 619.75 774.25C637.36 793.06 682.53 779.88 680 751C673.33 751 666.67 751 660 751C659.86 759.34 654.79 766.52 646 767C637.22 767.48 631.29 761.27 629.78 753.22C628.27 745.17 627.4 733.05 628.02 725.02C628.65 717 630.86 708.22 636.77 703.77C642.69 699.32 654.99 698.83 657.22 707.78C659.46 716.72 667.09 719.43 678 717Z" fill="#193F6C" stroke="#193F6C"/>
<path d="M705 688C699 688 693 688 687 688C687 719 687 750 687 781C693 781 699 781 705 781C705 750 705 719 705 688Z" fill="#193F6C" stroke="#193F6C"/>
<path d="M904 688C897.33 688 890.67 688 884 688C886.29 698.14 884.36 709.41 885 720C875.6 707.64 854.24 709.91 848.31 724.31C842.37 738.7 842.2 757.16 848.7 771.31C855.19 785.45 875.27 786.01 885 775C884.8 784.82 897.02 779.83 904 781C904 750 904 719 904 688ZM876 725C884.96 726.5 884.33 742.01 885 749C885.67 755.99 882.12 771.25 872 769C861.88 766.75 863.22 752.79 863 745C862.78 737.21 865.75 723.29 876 725Z" fill="#193F6C" stroke="#193F6C"/>
<path d="M277 781C271.32 763.19 283.98 730.44 269.23 716.77C254.47 703.1 223.44 713.74 223 733C229.26 732.33 234.75 734.67 241 734C240.54 718.22 263.86 724.83 258 739C240.85 738.28 217.9 744.5 220.02 764.98C222.15 785.45 246.17 786.8 258 776C258.65 784.78 270.44 779.65 277 781ZM258 750C262.49 760.27 251.35 777.7 240.75 767.25C230.15 756.79 249.46 748.73 258 750Z" fill="#193F6C" stroke="#193F6C"/>
<path d="M438 721C430.52 708.8 412.66 709.77 404 720C403.87 717.24 404.83 712.91 402 713C396.91 712.85 390.82 714.14 386 713C386 735.67 386 758.33 386 781C392 781 398 781 404 781C404.22 765.6 403.4 753.12 404.67 737.67C405.94 722.22 423.81 725.08 422 740C420.2 754.92 426.25 766.54 422 781C428.33 781 434.67 781 441 781C440.47 765.77 441.71 754.64 441 739C440.29 723.36 460.61 724.36 458 740C455.39 755.64 459.96 765.85 458 781C464.33 781 470.67 781 477 781C475.62 762.68 479.72 741.38 474.92 724.08C470.13 706.77 446.99 710.55 438 721Z" fill="#193F6C" stroke="#193F6C"/>
<path d="M584 734C594.13 735.54 602.9 731.2 597.92 722.08C592.95 712.95 586.71 712.99 578 712C569.29 711.01 561.15 713.54 555.25 719.25C549.35 724.96 548.54 735.24 551.75 742.25C554.95 749.27 563.86 752.5 570.78 753.22C577.69 753.94 589.48 759.31 583.25 767.25C577.02 775.18 565.32 767 567 759C560.94 759.48 555.15 760.94 549 761C547.77 772.05 557.59 781.34 568 782C578.41 782.66 592.11 782.72 598.75 773.75C605.38 764.77 603.77 753.43 596.23 745.77C588.69 738.11 574.89 744.15 568.32 734.68C561.75 725.2 587.47 718.39 584 734Z" fill="#193F6C" stroke="#193F6C"/>
<path d="M749 712C708.48 706.21 696.83 772.59 737 782C777.17 791.41 788.75 717.68 749 712ZM748 725C757.02 727.74 754.99 744.76 755 752C755.01 759.24 751.47 775.82 738.93 769.07C726.38 762.32 726.34 718.43 748 725Z" fill="#193F6C" stroke="#193F6C"/>
<path d="M318 735C313.22 730.14 311.81 723.98 307.92 717.08C304.04 710.18 291.67 713.8 284 713C290.79 724.67 299.2 735.31 306 747C297.99 757.85 290.75 769.71 283 781C290.56 780.43 303.53 783.79 307.08 776.08C310.62 768.37 312.46 764.5 317 758C320.54 764.82 322.76 770.3 326.75 777.25C330.73 784.21 343.8 779.8 351 781C342.74 769.14 334.53 757.32 327 745C335.5 735.41 341.92 723.79 349 713C343.18 715.14 330.89 709.45 326.77 715.77C322.65 722.1 320.81 728.29 318 735Z" fill="#193F6C" stroke="#193F6C"/>
<path d="M376 713C369.74 713.58 362.85 711.79 357 714C359.33 735.8 357.34 758.75 358 781C364 781 370 781 376 781C376 758.33 376 735.67 376 713Z" fill="#193F6C" stroke="#193F6C"/>
<path d="M505 714C499.24 711.49 491.52 714.02 486 713C487.64 731.04 483.28 753.55 487.23 770.77C491.18 787.99 515.58 784.4 524 774C521.19 785.74 536.25 779.44 543 781C543 758.33 543 735.67 543 713C536.67 713 530.33 713 524 713C524.14 727.91 523.82 742 523.99 756.99C524.17 771.98 502.56 770.7 504 756C505.44 741.3 502.1 728.08 505 714Z" fill="#193F6C" stroke="#193F6C"/>
<path d="M799 713C792.74 713.58 785.85 711.79 780 714C781.06 731.57 779.99 747.02 781.02 765.98C782.06 784.93 809.26 787.53 819 774C816.11 785.44 830.42 779.62 837 781C837 758.33 837 735.67 837 713C831 713 825 713 819 713C818.72 727.78 819.4 742.1 818.93 756.93C818.45 771.76 797.12 771.12 799 756C800.88 740.88 797.59 727.92 799 713Z" fill="#193F6C" stroke="#193F6C"/>
</svg>
