<svg xmlns="http://www.w3.org/2000/svg" xmlns:v="https://svgstorm.com"
viewBox = "0 0 1024 1024"
width="1024"
height="1024">
<g fill="None" fill-opacity="0.0" stroke="#FFFFFF" stroke-opacity="1.00" stroke-width="0.3"><path d="
M 0.00 1024.00 
L 1024.00 1024.00
L 1024.00 0.00
L 0.00 0.00
L 0.00 1024.00
M 628.00 215.00 
C 610.44 230.93 595.71 250.34 587.00 272.00
C 549.55 254.45 496.51 254.51 462.31 278.31 C 428.10 302.10 404.88 336.98 405.02 379.02 C 405.17 421.07 401.71 469.25 361.00 493.00
C 376.00 456.46 354.49 420.59 350.00 385.00
C 310.92 399.32 281.62 438.29 285.00 481.00
C 244.43 482.83 217.42 524.74 227.00 564.00 C 236.58 603.27 278.90 623.14 318.00 616.00
C 325.81 585.79 344.09 564.18 371.70 547.70 C 399.30 531.21 441.83 530.68 472.02 541.98 C 502.22 553.27 523.17 566.73 548.75 587.25 C 574.33 607.77 607.31 618.79 642.00 616.00 C 676.69 613.21 724.07 623.18 755.23 607.23 C 786.39 591.27 794.39 554.43 784.22 523.78 C 774.05 493.12 741.89 473.91 710.00 475.00
C 707.87 460.25 706.28 441.46 696.70 429.31 C 687.11 417.15 681.86 407.17 666.92 400.08 C 651.97 392.99 652.12 372.91 650.00 357.00
C 691.37 369.67 728.94 405.72 737.00 449.00
C 749.43 450.79 761.86 455.90 772.25 462.75 C 782.64 469.61 790.57 476.89 797.77 487.23 C 804.97 497.57 810.95 507.77 814.93 520.07 C 818.90 532.38 820.33 550.97 818.01 564.01 C 815.69 577.05 811.87 589.89 804.70 600.70 C 797.53 611.50 791.25 618.73 780.75 626.75 C 770.26 634.78 761.53 639.17 747.98 642.98 C 734.42 646.79 716.60 646.10 701.00 646.00 C 685.40 645.90 667.14 646.04 651.00 646.00 C 634.86 645.96 617.34 646.02 601.00 646.00 C 584.66 645.98 568.44 646.00 552.00 646.00 C 535.56 646.00 518.50 645.98 502.00 646.00 C 485.50 646.02 468.44 645.95 452.00 646.00 C 435.56 646.05 419.33 645.88 403.00 646.00 C 386.67 646.12 369.10 645.74 353.00 646.00 C 336.90 646.26 318.51 645.43 303.00 646.00 C 287.49 646.57 272.62 645.47 259.77 640.23 C 246.93 634.99 238.59 630.16 228.25 621.75 C 217.91 613.34 212.64 605.28 206.08 593.92 C 199.51 582.57 196.17 568.25 195.00 555.00 C 193.83 541.75 195.19 525.31 200.32 513.32 C 205.45 501.33 210.30 491.50 218.77 481.77 C 227.24 472.04 235.42 465.17 247.08 460.08 C 258.73 454.98 257.42 437.62 262.78 426.78 C 268.13 415.93 272.93 404.46 281.25 395.25 C 289.58 386.05 296.04 377.33 307.08 371.08 C 318.13 364.84 325.56 356.77 339.68 354.68 C 353.80 352.59 352.49 332.81 355.33 320.33 C 358.17 307.85 363.02 294.65 368.31 283.31 C 373.59 271.96 379.85 261.91 387.25 252.25 C 394.65 242.58 401.60 235.10 410.75 226.75 C 419.90 218.40 428.42 211.54 439.23 205.23 C 450.04 198.92 460.89 193.44 473.22 189.22 C 485.56 185.01 499.14 181.20 513.02 180.02 C 526.91 178.85 546.96 180.12 560.07 182.93 C 573.19 185.74 586.01 189.56 597.69 195.31 C 609.38 201.05 617.78 207.24 628.00 215.00
M 653.00 474.00 
C 643.58 469.38 642.28 463.80 632.75 458.25 C 623.22 452.70 621.60 442.32 623.00 431.00 C 624.40 419.68 621.30 407.11 621.00 396.00
C 595.23 389.45 569.94 381.09 544.00 375.00
C 548.60 383.35 555.91 387.90 560.92 396.08 C 565.92 404.27 575.51 407.38 582.70 412.31 C 589.88 417.23 604.79 415.42 607.78 425.22 C 610.76 435.03 608.38 451.06 610.00 462.00 C 611.62 472.94 611.80 485.63 612.98 497.02 C 614.16 508.41 613.59 521.56 615.00 533.00 C 616.41 544.44 617.81 555.75 620.00 567.00
C 565.29 548.44 498.45 515.01 486.00 452.00
C 484.41 475.73 481.92 502.11 486.00 526.00
C 457.63 514.34 425.35 508.53 394.00 514.00
C 419.17 485.56 430.80 444.84 423.07 406.93 C 415.34 369.01 427.91 328.31 456.25 303.25 C 484.59 278.18 528.45 269.27 563.01 281.99 C 597.56 294.71 622.37 318.42 631.33 354.67 C 640.29 390.92 645.78 436.50 653.00 474.00
M 147.00 687.00 
C 153.39 707.65 160.15 728.19 166.00 749.00
C 173.57 729.43 179.33 708.47 185.00 688.00
C 193.67 688.00 202.33 688.00 211.00 688.00
C 211.00 719.00 211.00 750.00 211.00 781.00
C 204.67 781.00 198.33 781.00 192.00 781.00
C 192.64 760.17 191.53 740.62 193.00 721.00
C 183.15 737.17 179.84 759.35 173.00 778.00
C 168.70 778.45 163.88 776.96 160.00 779.00
C 154.00 759.58 147.01 740.44 141.00 721.00
C 138.67 740.10 140.66 761.15 140.00 781.00
C 134.00 781.00 128.00 781.00 122.00 781.00
C 122.00 749.67 122.00 718.33 122.00 687.00
C 129.77 688.65 139.26 688.65 147.00 687.00
M 376.00 687.00 
C 376.00 692.33 376.00 697.67 376.00 703.00
C 369.33 703.00 362.67 703.00 356.00 703.00
C 357.66 699.13 352.88 688.79 358.08 687.08 C 363.29 685.38 370.60 688.19 376.00 687.00
M 678.00 717.00 
C 667.09 719.43 659.46 716.72 657.22 707.78 C 654.99 698.83 642.69 699.32 636.77 703.77 C 630.86 708.22 628.65 717.00 628.02 725.02 C 627.40 733.05 628.27 745.17 629.78 753.22 C 631.29 761.27 637.22 767.48 646.00 767.00 C 654.79 766.52 659.86 759.34 660.00 751.00
C 666.67 751.00 673.33 751.00 680.00 751.00
C 682.53 779.88 637.36 793.06 619.75 774.25 C 602.15 755.44 603.53 717.50 618.25 697.25 C 632.96 677.00 683.94 685.39 678.00 717.00
M 705.00 688.00 
C 705.00 719.00 705.00 750.00 705.00 781.00
C 699.00 781.00 693.00 781.00 687.00 781.00
C 687.00 750.00 687.00 719.00 687.00 688.00
C 693.00 688.00 699.00 688.00 705.00 688.00
M 904.00 688.00 
C 904.00 719.00 904.00 750.00 904.00 781.00
C 897.02 779.83 884.80 784.82 885.00 775.00
C 875.27 786.01 855.19 785.45 848.70 771.31 C 842.20 757.16 842.37 738.70 848.31 724.31 C 854.24 709.91 875.60 707.64 885.00 720.00
C 884.36 709.41 886.29 698.14 884.00 688.00
C 890.67 688.00 897.33 688.00 904.00 688.00
M 277.00 781.00 
C 270.44 779.65 258.65 784.78 258.00 776.00
C 246.17 786.80 222.15 785.45 220.02 764.98 C 217.90 744.50 240.85 738.28 258.00 739.00
C 263.86 724.83 240.54 718.22 241.00 734.00
C 234.75 734.67 229.26 732.33 223.00 733.00
C 223.44 713.74 254.47 703.10 269.23 716.77 C 283.98 730.44 271.32 763.19 277.00 781.00
M 438.00 721.00 
C 446.99 710.55 470.13 706.77 474.92 724.08 C 479.72 741.38 475.62 762.68 477.00 781.00
C 470.67 781.00 464.33 781.00 458.00 781.00
C 459.96 765.85 455.39 755.64 458.00 740.00 C 460.61 724.36 440.29 723.36 441.00 739.00 C 441.71 754.64 440.47 765.77 441.00 781.00
C 434.67 781.00 428.33 781.00 422.00 781.00
C 426.25 766.54 420.20 754.92 422.00 740.00 C 423.81 725.08 405.94 722.22 404.67 737.67 C 403.40 753.12 404.22 765.60 404.00 781.00
C 398.00 781.00 392.00 781.00 386.00 781.00
C 386.00 758.33 386.00 735.67 386.00 713.00
C 390.82 714.14 396.91 712.85 402.00 713.00
C 404.83 712.91 403.87 717.24 404.00 720.00
C 412.66 709.77 430.52 708.80 438.00 721.00
M 584.00 734.00 
C 587.47 718.39 561.75 725.20 568.32 734.68 C 574.89 744.15 588.69 738.11 596.23 745.77 C 603.77 753.43 605.38 764.77 598.75 773.75 C 592.11 782.72 578.41 782.66 568.00 782.00 C 557.59 781.34 547.77 772.05 549.00 761.00
C 555.15 760.94 560.94 759.48 567.00 759.00
C 565.32 767.00 577.02 775.18 583.25 767.25 C 589.48 759.31 577.69 753.94 570.78 753.22 C 563.86 752.50 554.95 749.27 551.75 742.25 C 548.54 735.24 549.35 724.96 555.25 719.25 C 561.15 713.54 569.29 711.01 578.00 712.00 C 586.71 712.99 592.95 712.95 597.92 722.08 C 602.90 731.20 594.13 735.54 584.00 734.00
M 749.00 712.00 
C 788.75 717.68 777.17 791.41 737.00 782.00 C 696.83 772.59 708.48 706.21 749.00 712.00
M 318.00 735.00 
C 320.81 728.29 322.65 722.10 326.77 715.77 C 330.89 709.45 343.18 715.14 349.00 713.00
C 341.92 723.79 335.50 735.41 327.00 745.00
C 334.53 757.32 342.74 769.14 351.00 781.00
C 343.80 779.80 330.73 784.21 326.75 777.25 C 322.76 770.30 320.54 764.82 317.00 758.00
C 312.46 764.50 310.62 768.37 307.08 776.08 C 303.53 783.79 290.56 780.43 283.00 781.00
C 290.75 769.71 297.99 757.85 306.00 747.00
C 299.20 735.31 290.79 724.67 284.00 713.00
C 291.67 713.80 304.04 710.18 307.92 717.08 C 311.81 723.98 313.22 730.14 318.00 735.00
M 376.00 713.00 
C 376.00 735.67 376.00 758.33 376.00 781.00
C 370.00 781.00 364.00 781.00 358.00 781.00
C 357.34 758.75 359.33 735.80 357.00 714.00
C 362.85 711.79 369.74 713.58 376.00 713.00
M 505.00 714.00 
C 502.10 728.08 505.44 741.30 504.00 756.00 C 502.56 770.70 524.17 771.98 523.99 756.99 C 523.82 742.00 524.14 727.91 524.00 713.00
C 530.33 713.00 536.67 713.00 543.00 713.00
C 543.00 735.67 543.00 758.33 543.00 781.00
C 536.25 779.44 521.19 785.74 524.00 774.00
C 515.58 784.40 491.18 787.99 487.23 770.77 C 483.28 753.55 487.64 731.04 486.00 713.00
C 491.52 714.02 499.24 711.49 505.00 714.00
M 799.00 713.00 
C 797.59 727.92 800.88 740.88 799.00 756.00 C 797.12 771.12 818.45 771.76 818.93 756.93 C 819.40 742.10 818.72 727.78 819.00 713.00
C 825.00 713.00 831.00 713.00 837.00 713.00
C 837.00 735.67 837.00 758.33 837.00 781.00
C 830.42 779.62 816.11 785.44 819.00 774.00
C 809.26 787.53 782.06 784.93 781.02 765.98 C 779.99 747.02 781.06 731.57 780.00 714.00
C 785.85 711.79 792.74 713.58 799.00 713.00 Z"/>
</g>
<g fill="None" fill-opacity="0.0" stroke="#000000" stroke-opacity="1.00" stroke-width="0.3"><path d="
M 628.00 215.00 
C 617.78 207.24 609.38 201.05 597.69 195.31 C 586.01 189.56 573.19 185.74 560.07 182.93 C 546.96 180.12 526.91 178.85 513.02 180.02 C 499.14 181.20 485.56 185.01 473.22 189.22 C 460.89 193.44 450.04 198.92 439.23 205.23 C 428.42 211.54 419.90 218.40 410.75 226.75 C 401.60 235.10 394.65 242.58 387.25 252.25 C 379.85 261.91 373.59 271.96 368.31 283.31 C 363.02 294.65 358.17 307.85 355.33 320.33 C 352.49 332.81 353.80 352.59 339.68 354.68 C 325.56 356.77 318.13 364.84 307.08 371.08 C 296.04 377.33 289.58 386.05 281.25 395.25 C 272.93 404.46 268.13 415.93 262.78 426.78 C 257.42 437.62 258.73 454.98 247.08 460.08 C 235.42 465.17 227.24 472.04 218.77 481.77 C 210.30 491.50 205.45 501.33 200.32 513.32 C 195.19 525.31 193.83 541.75 195.00 555.00 C 196.17 568.25 199.51 582.57 206.08 593.92 C 212.64 605.28 217.91 613.34 228.25 621.75 C 238.59 630.16 246.93 634.99 259.77 640.23 C 272.62 645.47 287.49 646.57 303.00 646.00 C 318.51 645.43 336.90 646.26 353.00 646.00 C 369.10 645.74 386.67 646.12 403.00 646.00 C 419.33 645.88 435.56 646.05 452.00 646.00 C 468.44 645.95 485.50 646.02 502.00 646.00 C 518.50 645.98 535.56 646.00 552.00 646.00 C 568.44 646.00 584.66 645.98 601.00 646.00 C 617.34 646.02 634.86 645.96 651.00 646.00 C 667.14 646.04 685.40 645.90 701.00 646.00 C 716.60 646.10 734.42 646.79 747.98 642.98 C 761.53 639.17 770.26 634.78 780.75 626.75 C 791.25 618.73 797.53 611.50 804.70 600.70 C 811.87 589.89 815.69 577.05 818.01 564.01 C 820.33 550.97 818.90 532.38 814.93 520.07 C 810.95 507.77 804.97 497.57 797.77 487.23 C 790.57 476.89 782.64 469.61 772.25 462.75 C 761.86 455.90 749.43 450.79 737.00 449.00
C 728.94 405.72 691.37 369.67 650.00 357.00
C 652.12 372.91 651.97 392.99 666.92 400.08 C 681.86 407.17 687.11 417.15 696.70 429.31 C 706.28 441.46 707.87 460.25 710.00 475.00
C 741.89 473.91 774.05 493.12 784.22 523.78 C 794.39 554.43 786.39 591.27 755.23 607.23 C 724.07 623.18 676.69 613.21 642.00 616.00 C 607.31 618.79 574.33 607.77 548.75 587.25 C 523.17 566.73 502.22 553.27 472.02 541.98 C 441.83 530.68 399.30 531.21 371.70 547.70 C 344.09 564.18 325.81 585.79 318.00 616.00
C 278.90 623.14 236.58 603.27 227.00 564.00 C 217.42 524.74 244.43 482.83 285.00 481.00
C 281.62 438.29 310.92 399.32 350.00 385.00
C 354.49 420.59 376.00 456.46 361.00 493.00
C 401.71 469.25 405.17 421.07 405.02 379.02 C 404.88 336.98 428.10 302.10 462.31 278.31 C 496.51 254.51 549.55 254.45 587.00 272.00
C 595.71 250.34 610.44 230.93 628.00 215.00 Z"/>
</g>
<g fill="None" fill-opacity="0.0" stroke="#000000" stroke-opacity="1.00" stroke-width="0.3"><path d="
M 653.00 474.00 
C 645.78 436.50 640.29 390.92 631.33 354.67 C 622.37 318.42 597.56 294.71 563.01 281.99 C 528.45 269.27 484.59 278.18 456.25 303.25 C 427.91 328.31 415.34 369.01 423.07 406.93 C 430.80 444.84 419.17 485.56 394.00 514.00
C 425.35 508.53 457.63 514.34 486.00 526.00
C 481.92 502.11 484.41 475.73 486.00 452.00
C 498.45 515.01 565.29 548.44 620.00 567.00
C 617.81 555.75 616.41 544.44 615.00 533.00 C 613.59 521.56 614.16 508.41 612.98 497.02 C 611.80 485.63 611.62 472.94 610.00 462.00 C 608.38 451.06 610.76 435.03 607.78 425.22 C 604.79 415.42 589.88 417.23 582.70 412.31 C 575.51 407.38 565.92 404.27 560.92 396.08 C 555.91 387.90 548.60 383.35 544.00 375.00
C 569.94 381.09 595.23 389.45 621.00 396.00
C 621.30 407.11 624.40 419.68 623.00 431.00 C 621.60 442.32 623.22 452.70 632.75 458.25 C 642.28 463.80 643.58 469.38 653.00 474.00 Z"/>
</g>
<g fill="None" fill-opacity="0.0" stroke="#000000" stroke-opacity="1.00" stroke-width="0.3"><path d="
M 147.00 687.00 
C 139.26 688.65 129.77 688.65 122.00 687.00
C 122.00 718.33 122.00 749.67 122.00 781.00
C 128.00 781.00 134.00 781.00 140.00 781.00
C 140.66 761.15 138.67 740.10 141.00 721.00
C 147.01 740.44 154.00 759.58 160.00 779.00
C 163.88 776.96 168.70 778.45 173.00 778.00
C 179.84 759.35 183.15 737.17 193.00 721.00
C 191.53 740.62 192.64 760.17 192.00 781.00
C 198.33 781.00 204.67 781.00 211.00 781.00
C 211.00 750.00 211.00 719.00 211.00 688.00
C 202.33 688.00 193.67 688.00 185.00 688.00
C 179.33 708.47 173.57 729.43 166.00 749.00
C 160.15 728.19 153.39 707.65 147.00 687.00 Z"/>
</g>
<g fill="None" fill-opacity="0.0" stroke="#000000" stroke-opacity="1.00" stroke-width="0.3"><path d="
M 376.00 687.00 
C 370.60 688.19 363.29 685.38 358.08 687.08 C 352.88 688.79 357.66 699.13 356.00 703.00
C 362.67 703.00 369.33 703.00 376.00 703.00
C 376.00 697.67 376.00 692.33 376.00 687.00 Z"/>
</g>
<g fill="None" fill-opacity="0.0" stroke="#000000" stroke-opacity="1.00" stroke-width="0.3"><path d="
M 678.00 717.00 
C 683.94 685.39 632.96 677.00 618.25 697.25 C 603.53 717.50 602.15 755.44 619.75 774.25 C 637.36 793.06 682.53 779.88 680.00 751.00
C 673.33 751.00 666.67 751.00 660.00 751.00
C 659.86 759.34 654.79 766.52 646.00 767.00 C 637.22 767.48 631.29 761.27 629.78 753.22 C 628.27 745.17 627.40 733.05 628.02 725.02 C 628.65 717.00 630.86 708.22 636.77 703.77 C 642.69 699.32 654.99 698.83 657.22 707.78 C 659.46 716.72 667.09 719.43 678.00 717.00 Z"/>
</g>
<g fill="None" fill-opacity="0.0" stroke="#000000" stroke-opacity="1.00" stroke-width="0.3"><path d="
M 705.00 688.00 
C 699.00 688.00 693.00 688.00 687.00 688.00
C 687.00 719.00 687.00 750.00 687.00 781.00
C 693.00 781.00 699.00 781.00 705.00 781.00
C 705.00 750.00 705.00 719.00 705.00 688.00 Z"/>
</g>
<g fill="None" fill-opacity="0.0" stroke="#000000" stroke-opacity="1.00" stroke-width="0.3"><path d="
M 904.00 688.00 
C 897.33 688.00 890.67 688.00 884.00 688.00
C 886.29 698.14 884.36 709.41 885.00 720.00
C 875.60 707.64 854.24 709.91 848.31 724.31 C 842.37 738.70 842.20 757.16 848.70 771.31 C 855.19 785.45 875.27 786.01 885.00 775.00
C 884.80 784.82 897.02 779.83 904.00 781.00
C 904.00 750.00 904.00 719.00 904.00 688.00
M 876.00 725.00 
C 884.96 726.50 884.33 742.01 885.00 749.00 C 885.67 755.99 882.12 771.25 872.00 769.00 C 861.88 766.75 863.22 752.79 863.00 745.00 C 862.78 737.21 865.75 723.29 876.00 725.00 Z"/>
</g>
<g fill="None" fill-opacity="0.0" stroke="#000000" stroke-opacity="1.00" stroke-width="0.3"><path d="
M 277.00 781.00 
C 271.32 763.19 283.98 730.44 269.23 716.77 C 254.47 703.10 223.44 713.74 223.00 733.00
C 229.26 732.33 234.75 734.67 241.00 734.00
C 240.54 718.22 263.86 724.83 258.00 739.00
C 240.85 738.28 217.90 744.50 220.02 764.98 C 222.15 785.45 246.17 786.80 258.00 776.00
C 258.65 784.78 270.44 779.65 277.00 781.00
M 258.00 750.00 
C 262.49 760.27 251.35 777.70 240.75 767.25 C 230.15 756.79 249.46 748.73 258.00 750.00 Z"/>
</g>
<g fill="None" fill-opacity="0.0" stroke="#000000" stroke-opacity="1.00" stroke-width="0.3"><path d="
M 438.00 721.00 
C 430.52 708.80 412.66 709.77 404.00 720.00
C 403.87 717.24 404.83 712.91 402.00 713.00
C 396.91 712.85 390.82 714.14 386.00 713.00
C 386.00 735.67 386.00 758.33 386.00 781.00
C 392.00 781.00 398.00 781.00 404.00 781.00
C 404.22 765.60 403.40 753.12 404.67 737.67 C 405.94 722.22 423.81 725.08 422.00 740.00 C 420.20 754.92 426.25 766.54 422.00 781.00
C 428.33 781.00 434.67 781.00 441.00 781.00
C 440.47 765.77 441.71 754.64 441.00 739.00 C 440.29 723.36 460.61 724.36 458.00 740.00 C 455.39 755.64 459.96 765.85 458.00 781.00
C 464.33 781.00 470.67 781.00 477.00 781.00
C 475.62 762.68 479.72 741.38 474.92 724.08 C 470.13 706.77 446.99 710.55 438.00 721.00 Z"/>
</g>
<g fill="None" fill-opacity="0.0" stroke="#000000" stroke-opacity="1.00" stroke-width="0.3"><path d="
M 584.00 734.00 
C 594.13 735.54 602.90 731.20 597.92 722.08 C 592.95 712.95 586.71 712.99 578.00 712.00 C 569.29 711.01 561.15 713.54 555.25 719.25 C 549.35 724.96 548.54 735.24 551.75 742.25 C 554.95 749.27 563.86 752.50 570.78 753.22 C 577.69 753.94 589.48 759.31 583.25 767.25 C 577.02 775.18 565.32 767.00 567.00 759.00
C 560.94 759.48 555.15 760.94 549.00 761.00
C 547.77 772.05 557.59 781.34 568.00 782.00 C 578.41 782.66 592.11 782.72 598.75 773.75 C 605.38 764.77 603.77 753.43 596.23 745.77 C 588.69 738.11 574.89 744.15 568.32 734.68 C 561.75 725.20 587.47 718.39 584.00 734.00 Z"/>
</g>
<g fill="None" fill-opacity="0.0" stroke="#000000" stroke-opacity="1.00" stroke-width="0.3"><path d="
M 749.00 712.00 
C 708.48 706.21 696.83 772.59 737.00 782.00 C 777.17 791.41 788.75 717.68 749.00 712.00
M 748.00 725.00 
C 757.02 727.74 754.99 744.76 755.00 752.00 C 755.01 759.24 751.47 775.82 738.93 769.07 C 726.38 762.32 726.34 718.43 748.00 725.00 Z"/>
</g>
<g fill="None" fill-opacity="0.0" stroke="#000000" stroke-opacity="1.00" stroke-width="0.3"><path d="
M 318.00 735.00 
C 313.22 730.14 311.81 723.98 307.92 717.08 C 304.04 710.18 291.67 713.80 284.00 713.00
C 290.79 724.67 299.20 735.31 306.00 747.00
C 297.99 757.85 290.75 769.71 283.00 781.00
C 290.56 780.43 303.53 783.79 307.08 776.08 C 310.62 768.37 312.46 764.50 317.00 758.00
C 320.54 764.82 322.76 770.30 326.75 777.25 C 330.73 784.21 343.80 779.80 351.00 781.00
C 342.74 769.14 334.53 757.32 327.00 745.00
C 335.50 735.41 341.92 723.79 349.00 713.00
C 343.18 715.14 330.89 709.45 326.77 715.77 C 322.65 722.10 320.81 728.29 318.00 735.00 Z"/>
</g>
<g fill="None" fill-opacity="0.0" stroke="#000000" stroke-opacity="1.00" stroke-width="0.3"><path d="
M 376.00 713.00 
C 369.74 713.58 362.85 711.79 357.00 714.00
C 359.33 735.80 357.34 758.75 358.00 781.00
C 364.00 781.00 370.00 781.00 376.00 781.00
C 376.00 758.33 376.00 735.67 376.00 713.00 Z"/>
</g>
<g fill="None" fill-opacity="0.0" stroke="#000000" stroke-opacity="1.00" stroke-width="0.3"><path d="
M 505.00 714.00 
C 499.24 711.49 491.52 714.02 486.00 713.00
C 487.64 731.04 483.28 753.55 487.23 770.77 C 491.18 787.99 515.58 784.40 524.00 774.00
C 521.19 785.74 536.25 779.44 543.00 781.00
C 543.00 758.33 543.00 735.67 543.00 713.00
C 536.67 713.00 530.33 713.00 524.00 713.00
C 524.14 727.91 523.82 742.00 523.99 756.99 C 524.17 771.98 502.56 770.70 504.00 756.00 C 505.44 741.30 502.10 728.08 505.00 714.00 Z"/>
</g>
<g fill="None" fill-opacity="0.0" stroke="#000000" stroke-opacity="1.00" stroke-width="0.3"><path d="
M 799.00 713.00 
C 792.74 713.58 785.85 711.79 780.00 714.00
C 781.06 731.57 779.99 747.02 781.02 765.98 C 782.06 784.93 809.26 787.53 819.00 774.00
C 816.11 785.44 830.42 779.62 837.00 781.00
C 837.00 758.33 837.00 735.67 837.00 713.00
C 831.00 713.00 825.00 713.00 819.00 713.00
C 818.72 727.78 819.40 742.10 818.93 756.93 C 818.45 771.76 797.12 771.12 799.00 756.00 C 800.88 740.88 797.59 727.92 799.00 713.00 Z"/>
</g>
<g fill="None" fill-opacity="0.0" stroke="#FFFFFF" stroke-opacity="1.00" stroke-width="0.3"><path d="
M 748.00 725.00 
C 726.34 718.43 726.38 762.32 738.93 769.07 C 751.47 775.82 755.01 759.24 755.00 752.00 C 754.99 744.76 757.02 727.74 748.00 725.00 Z"/>
</g>
<g fill="None" fill-opacity="0.0" stroke="#FFFFFF" stroke-opacity="1.00" stroke-width="0.3"><path d="
M 876.00 725.00 
C 865.75 723.29 862.78 737.21 863.00 745.00 C 863.22 752.79 861.88 766.75 872.00 769.00 C 882.12 771.25 885.67 755.99 885.00 749.00 C 884.33 742.01 884.96 726.50 876.00 725.00 Z"/>
</g>
<g fill="None" fill-opacity="0.0" stroke="#FFFFFF" stroke-opacity="1.00" stroke-width="0.3"><path d="
M 258.00 750.00 
C 249.46 748.73 230.15 756.79 240.75 767.25 C 251.35 777.70 262.49 760.27 258.00 750.00 Z"/>
</g>
<g fill="#FFFFFF" fill-opacity="1.00" stroke="None">
<path d="
M 0.00 1024.00 
L 1024.00 1024.00
L 1024.00 0.00
L 0.00 0.00
L 0.00 1024.00
M 628.00 215.00 
C 610.44 230.93 595.71 250.34 587.00 272.00
C 549.55 254.45 496.51 254.51 462.31 278.31 C 428.10 302.10 404.88 336.98 405.02 379.02 C 405.17 421.07 401.71 469.25 361.00 493.00
C 376.00 456.46 354.49 420.59 350.00 385.00
C 310.92 399.32 281.62 438.29 285.00 481.00
C 244.43 482.83 217.42 524.74 227.00 564.00 C 236.58 603.27 278.90 623.14 318.00 616.00
C 325.81 585.79 344.09 564.18 371.70 547.70 C 399.30 531.21 441.83 530.68 472.02 541.98 C 502.22 553.27 523.17 566.73 548.75 587.25 C 574.33 607.77 607.31 618.79 642.00 616.00 C 676.69 613.21 724.07 623.18 755.23 607.23 C 786.39 591.27 794.39 554.43 784.22 523.78 C 774.05 493.12 741.89 473.91 710.00 475.00
C 707.87 460.25 706.28 441.46 696.70 429.31 C 687.11 417.15 681.86 407.17 666.92 400.08 C 651.97 392.99 652.12 372.91 650.00 357.00
C 691.37 369.67 728.94 405.72 737.00 449.00
C 749.43 450.79 761.86 455.90 772.25 462.75 C 782.64 469.61 790.57 476.89 797.77 487.23 C 804.97 497.57 810.95 507.77 814.93 520.07 C 818.90 532.38 820.33 550.97 818.01 564.01 C 815.69 577.05 811.87 589.89 804.70 600.70 C 797.53 611.50 791.25 618.73 780.75 626.75 C 770.26 634.78 761.53 639.17 747.98 642.98 C 734.42 646.79 716.60 646.10 701.00 646.00 C 685.40 645.90 667.14 646.04 651.00 646.00 C 634.86 645.96 617.34 646.02 601.00 646.00 C 584.66 645.98 568.44 646.00 552.00 646.00 C 535.56 646.00 518.50 645.98 502.00 646.00 C 485.50 646.02 468.44 645.95 452.00 646.00 C 435.56 646.05 419.33 645.88 403.00 646.00 C 386.67 646.12 369.10 645.74 353.00 646.00 C 336.90 646.26 318.51 645.43 303.00 646.00 C 287.49 646.57 272.62 645.47 259.77 640.23 C 246.93 634.99 238.59 630.16 228.25 621.75 C 217.91 613.34 212.64 605.28 206.08 593.92 C 199.51 582.57 196.17 568.25 195.00 555.00 C 193.83 541.75 195.19 525.31 200.32 513.32 C 205.45 501.33 210.30 491.50 218.77 481.77 C 227.24 472.04 235.42 465.17 247.08 460.08 C 258.73 454.98 257.42 437.62 262.78 426.78 C 268.13 415.93 272.93 404.46 281.25 395.25 C 289.58 386.05 296.04 377.33 307.08 371.08 C 318.13 364.84 325.56 356.77 339.68 354.68 C 353.80 352.59 352.49 332.81 355.33 320.33 C 358.17 307.85 363.02 294.65 368.31 283.31 C 373.59 271.96 379.85 261.91 387.25 252.25 C 394.65 242.58 401.60 235.10 410.75 226.75 C 419.90 218.40 428.42 211.54 439.23 205.23 C 450.04 198.92 460.89 193.44 473.22 189.22 C 485.56 185.01 499.14 181.20 513.02 180.02 C 526.91 178.85 546.96 180.12 560.07 182.93 C 573.19 185.74 586.01 189.56 597.69 195.31 C 609.38 201.05 617.78 207.24 628.00 215.00
M 653.00 474.00 
C 643.58 469.38 642.28 463.80 632.75 458.25 C 623.22 452.70 621.60 442.32 623.00 431.00 C 624.40 419.68 621.30 407.11 621.00 396.00
C 595.23 389.45 569.94 381.09 544.00 375.00
C 548.60 383.35 555.91 387.90 560.92 396.08 C 565.92 404.27 575.51 407.38 582.70 412.31 C 589.88 417.23 604.79 415.42 607.78 425.22 C 610.76 435.03 608.38 451.06 610.00 462.00 C 611.62 472.94 611.80 485.63 612.98 497.02 C 614.16 508.41 613.59 521.56 615.00 533.00 C 616.41 544.44 617.81 555.75 620.00 567.00
C 565.29 548.44 498.45 515.01 486.00 452.00
C 484.41 475.73 481.92 502.11 486.00 526.00
C 457.63 514.34 425.35 508.53 394.00 514.00
C 419.17 485.56 430.80 444.84 423.07 406.93 C 415.34 369.01 427.91 328.31 456.25 303.25 C 484.59 278.18 528.45 269.27 563.01 281.99 C 597.56 294.71 622.37 318.42 631.33 354.67 C 640.29 390.92 645.78 436.50 653.00 474.00
M 147.00 687.00 
C 153.39 707.65 160.15 728.19 166.00 749.00
C 173.57 729.43 179.33 708.47 185.00 688.00
C 193.67 688.00 202.33 688.00 211.00 688.00
C 211.00 719.00 211.00 750.00 211.00 781.00
C 204.67 781.00 198.33 781.00 192.00 781.00
C 192.64 760.17 191.53 740.62 193.00 721.00
C 183.15 737.17 179.84 759.35 173.00 778.00
C 168.70 778.45 163.88 776.96 160.00 779.00
C 154.00 759.58 147.01 740.44 141.00 721.00
C 138.67 740.10 140.66 761.15 140.00 781.00
C 134.00 781.00 128.00 781.00 122.00 781.00
C 122.00 749.67 122.00 718.33 122.00 687.00
C 129.77 688.65 139.26 688.65 147.00 687.00
M 376.00 687.00 
C 376.00 692.33 376.00 697.67 376.00 703.00
C 369.33 703.00 362.67 703.00 356.00 703.00
C 357.66 699.13 352.88 688.79 358.08 687.08 C 363.29 685.38 370.60 688.19 376.00 687.00
M 678.00 717.00 
C 667.09 719.43 659.46 716.72 657.22 707.78 C 654.99 698.83 642.69 699.32 636.77 703.77 C 630.86 708.22 628.65 717.00 628.02 725.02 C 627.40 733.05 628.27 745.17 629.78 753.22 C 631.29 761.27 637.22 767.48 646.00 767.00 C 654.79 766.52 659.86 759.34 660.00 751.00
C 666.67 751.00 673.33 751.00 680.00 751.00
C 682.53 779.88 637.36 793.06 619.75 774.25 C 602.15 755.44 603.53 717.50 618.25 697.25 C 632.96 677.00 683.94 685.39 678.00 717.00
M 705.00 688.00 
C 705.00 719.00 705.00 750.00 705.00 781.00
C 699.00 781.00 693.00 781.00 687.00 781.00
C 687.00 750.00 687.00 719.00 687.00 688.00
C 693.00 688.00 699.00 688.00 705.00 688.00
M 904.00 688.00 
C 904.00 719.00 904.00 750.00 904.00 781.00
C 897.02 779.83 884.80 784.82 885.00 775.00
C 875.27 786.01 855.19 785.45 848.70 771.31 C 842.20 757.16 842.37 738.70 848.31 724.31 C 854.24 709.91 875.60 707.64 885.00 720.00
C 884.36 709.41 886.29 698.14 884.00 688.00
C 890.67 688.00 897.33 688.00 904.00 688.00
M 277.00 781.00 
C 270.44 779.65 258.65 784.78 258.00 776.00
C 246.17 786.80 222.15 785.45 220.02 764.98 C 217.90 744.50 240.85 738.28 258.00 739.00
C 263.86 724.83 240.54 718.22 241.00 734.00
C 234.75 734.67 229.26 732.33 223.00 733.00
C 223.44 713.74 254.47 703.10 269.23 716.77 C 283.98 730.44 271.32 763.19 277.00 781.00
M 438.00 721.00 
C 446.99 710.55 470.13 706.77 474.92 724.08 C 479.72 741.38 475.62 762.68 477.00 781.00
C 470.67 781.00 464.33 781.00 458.00 781.00
C 459.96 765.85 455.39 755.64 458.00 740.00 C 460.61 724.36 440.29 723.36 441.00 739.00 C 441.71 754.64 440.47 765.77 441.00 781.00
C 434.67 781.00 428.33 781.00 422.00 781.00
C 426.25 766.54 420.20 754.92 422.00 740.00 C 423.81 725.08 405.94 722.22 404.67 737.67 C 403.40 753.12 404.22 765.60 404.00 781.00
C 398.00 781.00 392.00 781.00 386.00 781.00
C 386.00 758.33 386.00 735.67 386.00 713.00
C 390.82 714.14 396.91 712.85 402.00 713.00
C 404.83 712.91 403.87 717.24 404.00 720.00
C 412.66 709.77 430.52 708.80 438.00 721.00
M 584.00 734.00 
C 587.47 718.39 561.75 725.20 568.32 734.68 C 574.89 744.15 588.69 738.11 596.23 745.77 C 603.77 753.43 605.38 764.77 598.75 773.75 C 592.11 782.72 578.41 782.66 568.00 782.00 C 557.59 781.34 547.77 772.05 549.00 761.00
C 555.15 760.94 560.94 759.48 567.00 759.00
C 565.32 767.00 577.02 775.18 583.25 767.25 C 589.48 759.31 577.69 753.94 570.78 753.22 C 563.86 752.50 554.95 749.27 551.75 742.25 C 548.54 735.24 549.35 724.96 555.25 719.25 C 561.15 713.54 569.29 711.01 578.00 712.00 C 586.71 712.99 592.95 712.95 597.92 722.08 C 602.90 731.20 594.13 735.54 584.00 734.00
M 749.00 712.00 
C 788.75 717.68 777.17 791.41 737.00 782.00 C 696.83 772.59 708.48 706.21 749.00 712.00
M 318.00 735.00 
C 320.81 728.29 322.65 722.10 326.77 715.77 C 330.89 709.45 343.18 715.14 349.00 713.00
C 341.92 723.79 335.50 735.41 327.00 745.00
C 334.53 757.32 342.74 769.14 351.00 781.00
C 343.80 779.80 330.73 784.21 326.75 777.25 C 322.76 770.30 320.54 764.82 317.00 758.00
C 312.46 764.50 310.62 768.37 307.08 776.08 C 303.53 783.79 290.56 780.43 283.00 781.00
C 290.75 769.71 297.99 757.85 306.00 747.00
C 299.20 735.31 290.79 724.67 284.00 713.00
C 291.67 713.80 304.04 710.18 307.92 717.08 C 311.81 723.98 313.22 730.14 318.00 735.00
M 376.00 713.00 
C 376.00 735.67 376.00 758.33 376.00 781.00
C 370.00 781.00 364.00 781.00 358.00 781.00
C 357.34 758.75 359.33 735.80 357.00 714.00
C 362.85 711.79 369.74 713.58 376.00 713.00
M 505.00 714.00 
C 502.10 728.08 505.44 741.30 504.00 756.00 C 502.56 770.70 524.17 771.98 523.99 756.99 C 523.82 742.00 524.14 727.91 524.00 713.00
C 530.33 713.00 536.67 713.00 543.00 713.00
C 543.00 735.67 543.00 758.33 543.00 781.00
C 536.25 779.44 521.19 785.74 524.00 774.00
C 515.58 784.40 491.18 787.99 487.23 770.77 C 483.28 753.55 487.64 731.04 486.00 713.00
C 491.52 714.02 499.24 711.49 505.00 714.00
M 799.00 713.00 
C 797.59 727.92 800.88 740.88 799.00 756.00 C 797.12 771.12 818.45 771.76 818.93 756.93 C 819.40 742.10 818.72 727.78 819.00 713.00
C 825.00 713.00 831.00 713.00 837.00 713.00
C 837.00 735.67 837.00 758.33 837.00 781.00
C 830.42 779.62 816.11 785.44 819.00 774.00
C 809.26 787.53 782.06 784.93 781.02 765.98 C 779.99 747.02 781.06 731.57 780.00 714.00
C 785.85 711.79 792.74 713.58 799.00 713.00 Z"/>
</g>
<g fill="#000000" fill-opacity="1.00" stroke="None">
<path d="
M 628.00 215.00 
C 617.78 207.24 609.38 201.05 597.69 195.31 C 586.01 189.56 573.19 185.74 560.07 182.93 C 546.96 180.12 526.91 178.85 513.02 180.02 C 499.14 181.20 485.56 185.01 473.22 189.22 C 460.89 193.44 450.04 198.92 439.23 205.23 C 428.42 211.54 419.90 218.40 410.75 226.75 C 401.60 235.10 394.65 242.58 387.25 252.25 C 379.85 261.91 373.59 271.96 368.31 283.31 C 363.02 294.65 358.17 307.85 355.33 320.33 C 352.49 332.81 353.80 352.59 339.68 354.68 C 325.56 356.77 318.13 364.84 307.08 371.08 C 296.04 377.33 289.58 386.05 281.25 395.25 C 272.93 404.46 268.13 415.93 262.78 426.78 C 257.42 437.62 258.73 454.98 247.08 460.08 C 235.42 465.17 227.24 472.04 218.77 481.77 C 210.30 491.50 205.45 501.33 200.32 513.32 C 195.19 525.31 193.83 541.75 195.00 555.00 C 196.17 568.25 199.51 582.57 206.08 593.92 C 212.64 605.28 217.91 613.34 228.25 621.75 C 238.59 630.16 246.93 634.99 259.77 640.23 C 272.62 645.47 287.49 646.57 303.00 646.00 C 318.51 645.43 336.90 646.26 353.00 646.00 C 369.10 645.74 386.67 646.12 403.00 646.00 C 419.33 645.88 435.56 646.05 452.00 646.00 C 468.44 645.95 485.50 646.02 502.00 646.00 C 518.50 645.98 535.56 646.00 552.00 646.00 C 568.44 646.00 584.66 645.98 601.00 646.00 C 617.34 646.02 634.86 645.96 651.00 646.00 C 667.14 646.04 685.40 645.90 701.00 646.00 C 716.60 646.10 734.42 646.79 747.98 642.98 C 761.53 639.17 770.26 634.78 780.75 626.75 C 791.25 618.73 797.53 611.50 804.70 600.70 C 811.87 589.89 815.69 577.05 818.01 564.01 C 820.33 550.97 818.90 532.38 814.93 520.07 C 810.95 507.77 804.97 497.57 797.77 487.23 C 790.57 476.89 782.64 469.61 772.25 462.75 C 761.86 455.90 749.43 450.79 737.00 449.00
C 728.94 405.72 691.37 369.67 650.00 357.00
C 652.12 372.91 651.97 392.99 666.92 400.08 C 681.86 407.17 687.11 417.15 696.70 429.31 C 706.28 441.46 707.87 460.25 710.00 475.00
C 741.89 473.91 774.05 493.12 784.22 523.78 C 794.39 554.43 786.39 591.27 755.23 607.23 C 724.07 623.18 676.69 613.21 642.00 616.00 C 607.31 618.79 574.33 607.77 548.75 587.25 C 523.17 566.73 502.22 553.27 472.02 541.98 C 441.83 530.68 399.30 531.21 371.70 547.70 C 344.09 564.18 325.81 585.79 318.00 616.00
C 278.90 623.14 236.58 603.27 227.00 564.00 C 217.42 524.74 244.43 482.83 285.00 481.00
C 281.62 438.29 310.92 399.32 350.00 385.00
C 354.49 420.59 376.00 456.46 361.00 493.00
C 401.71 469.25 405.17 421.07 405.02 379.02 C 404.88 336.98 428.10 302.10 462.31 278.31 C 496.51 254.51 549.55 254.45 587.00 272.00
C 595.71 250.34 610.44 230.93 628.00 215.00 Z"/>
</g>
<g fill="#000000" fill-opacity="1.00" stroke="None">
<path d="
M 653.00 474.00 
C 645.78 436.50 640.29 390.92 631.33 354.67 C 622.37 318.42 597.56 294.71 563.01 281.99 C 528.45 269.27 484.59 278.18 456.25 303.25 C 427.91 328.31 415.34 369.01 423.07 406.93 C 430.80 444.84 419.17 485.56 394.00 514.00
C 425.35 508.53 457.63 514.34 486.00 526.00
C 481.92 502.11 484.41 475.73 486.00 452.00
C 498.45 515.01 565.29 548.44 620.00 567.00
C 617.81 555.75 616.41 544.44 615.00 533.00 C 613.59 521.56 614.16 508.41 612.98 497.02 C 611.80 485.63 611.62 472.94 610.00 462.00 C 608.38 451.06 610.76 435.03 607.78 425.22 C 604.79 415.42 589.88 417.23 582.70 412.31 C 575.51 407.38 565.92 404.27 560.92 396.08 C 555.91 387.90 548.60 383.35 544.00 375.00
C 569.94 381.09 595.23 389.45 621.00 396.00
C 621.30 407.11 624.40 419.68 623.00 431.00 C 621.60 442.32 623.22 452.70 632.75 458.25 C 642.28 463.80 643.58 469.38 653.00 474.00 Z"/>
</g>
<g fill="#000000" fill-opacity="1.00" stroke="None">
<path d="
M 147.00 687.00 
C 139.26 688.65 129.77 688.65 122.00 687.00
C 122.00 718.33 122.00 749.67 122.00 781.00
C 128.00 781.00 134.00 781.00 140.00 781.00
C 140.66 761.15 138.67 740.10 141.00 721.00
C 147.01 740.44 154.00 759.58 160.00 779.00
C 163.88 776.96 168.70 778.45 173.00 778.00
C 179.84 759.35 183.15 737.17 193.00 721.00
C 191.53 740.62 192.64 760.17 192.00 781.00
C 198.33 781.00 204.67 781.00 211.00 781.00
C 211.00 750.00 211.00 719.00 211.00 688.00
C 202.33 688.00 193.67 688.00 185.00 688.00
C 179.33 708.47 173.57 729.43 166.00 749.00
C 160.15 728.19 153.39 707.65 147.00 687.00 Z"/>
</g>
<g fill="#000000" fill-opacity="1.00" stroke="None">
<path d="
M 376.00 687.00 
C 370.60 688.19 363.29 685.38 358.08 687.08 C 352.88 688.79 357.66 699.13 356.00 703.00
C 362.67 703.00 369.33 703.00 376.00 703.00
C 376.00 697.67 376.00 692.33 376.00 687.00 Z"/>
</g>
<g fill="#000000" fill-opacity="1.00" stroke="None">
<path d="
M 678.00 717.00 
C 683.94 685.39 632.96 677.00 618.25 697.25 C 603.53 717.50 602.15 755.44 619.75 774.25 C 637.36 793.06 682.53 779.88 680.00 751.00
C 673.33 751.00 666.67 751.00 660.00 751.00
C 659.86 759.34 654.79 766.52 646.00 767.00 C 637.22 767.48 631.29 761.27 629.78 753.22 C 628.27 745.17 627.40 733.05 628.02 725.02 C 628.65 717.00 630.86 708.22 636.77 703.77 C 642.69 699.32 654.99 698.83 657.22 707.78 C 659.46 716.72 667.09 719.43 678.00 717.00 Z"/>
</g>
<g fill="#000000" fill-opacity="1.00" stroke="None">
<path d="
M 705.00 688.00 
C 699.00 688.00 693.00 688.00 687.00 688.00
C 687.00 719.00 687.00 750.00 687.00 781.00
C 693.00 781.00 699.00 781.00 705.00 781.00
C 705.00 750.00 705.00 719.00 705.00 688.00 Z"/>
</g>
<g fill="#000000" fill-opacity="1.00" stroke="None">
<path d="
M 904.00 688.00 
C 897.33 688.00 890.67 688.00 884.00 688.00
C 886.29 698.14 884.36 709.41 885.00 720.00
C 875.60 707.64 854.24 709.91 848.31 724.31 C 842.37 738.70 842.20 757.16 848.70 771.31 C 855.19 785.45 875.27 786.01 885.00 775.00
C 884.80 784.82 897.02 779.83 904.00 781.00
C 904.00 750.00 904.00 719.00 904.00 688.00
M 876.00 725.00 
C 884.96 726.50 884.33 742.01 885.00 749.00 C 885.67 755.99 882.12 771.25 872.00 769.00 C 861.88 766.75 863.22 752.79 863.00 745.00 C 862.78 737.21 865.75 723.29 876.00 725.00 Z"/>
</g>
<g fill="#000000" fill-opacity="1.00" stroke="None">
<path d="
M 277.00 781.00 
C 271.32 763.19 283.98 730.44 269.23 716.77 C 254.47 703.10 223.44 713.74 223.00 733.00
C 229.26 732.33 234.75 734.67 241.00 734.00
C 240.54 718.22 263.86 724.83 258.00 739.00
C 240.85 738.28 217.90 744.50 220.02 764.98 C 222.15 785.45 246.17 786.80 258.00 776.00
C 258.65 784.78 270.44 779.65 277.00 781.00
M 258.00 750.00 
C 262.49 760.27 251.35 777.70 240.75 767.25 C 230.15 756.79 249.46 748.73 258.00 750.00 Z"/>
</g>
<g fill="#000000" fill-opacity="1.00" stroke="None">
<path d="
M 438.00 721.00 
C 430.52 708.80 412.66 709.77 404.00 720.00
C 403.87 717.24 404.83 712.91 402.00 713.00
C 396.91 712.85 390.82 714.14 386.00 713.00
C 386.00 735.67 386.00 758.33 386.00 781.00
C 392.00 781.00 398.00 781.00 404.00 781.00
C 404.22 765.60 403.40 753.12 404.67 737.67 C 405.94 722.22 423.81 725.08 422.00 740.00 C 420.20 754.92 426.25 766.54 422.00 781.00
C 428.33 781.00 434.67 781.00 441.00 781.00
C 440.47 765.77 441.71 754.64 441.00 739.00 C 440.29 723.36 460.61 724.36 458.00 740.00 C 455.39 755.64 459.96 765.85 458.00 781.00
C 464.33 781.00 470.67 781.00 477.00 781.00
C 475.62 762.68 479.72 741.38 474.92 724.08 C 470.13 706.77 446.99 710.55 438.00 721.00 Z"/>
</g>
<g fill="#000000" fill-opacity="1.00" stroke="None">
<path d="
M 584.00 734.00 
C 594.13 735.54 602.90 731.20 597.92 722.08 C 592.95 712.95 586.71 712.99 578.00 712.00 C 569.29 711.01 561.15 713.54 555.25 719.25 C 549.35 724.96 548.54 735.24 551.75 742.25 C 554.95 749.27 563.86 752.50 570.78 753.22 C 577.69 753.94 589.48 759.31 583.25 767.25 C 577.02 775.18 565.32 767.00 567.00 759.00
C 560.94 759.48 555.15 760.94 549.00 761.00
C 547.77 772.05 557.59 781.34 568.00 782.00 C 578.41 782.66 592.11 782.72 598.75 773.75 C 605.38 764.77 603.77 753.43 596.23 745.77 C 588.69 738.11 574.89 744.15 568.32 734.68 C 561.75 725.20 587.47 718.39 584.00 734.00 Z"/>
</g>
<g fill="#000000" fill-opacity="1.00" stroke="None">
<path d="
M 749.00 712.00 
C 708.48 706.21 696.83 772.59 737.00 782.00 C 777.17 791.41 788.75 717.68 749.00 712.00
M 748.00 725.00 
C 757.02 727.74 754.99 744.76 755.00 752.00 C 755.01 759.24 751.47 775.82 738.93 769.07 C 726.38 762.32 726.34 718.43 748.00 725.00 Z"/>
</g>
<g fill="#000000" fill-opacity="1.00" stroke="None">
<path d="
M 318.00 735.00 
C 313.22 730.14 311.81 723.98 307.92 717.08 C 304.04 710.18 291.67 713.80 284.00 713.00
C 290.79 724.67 299.20 735.31 306.00 747.00
C 297.99 757.85 290.75 769.71 283.00 781.00
C 290.56 780.43 303.53 783.79 307.08 776.08 C 310.62 768.37 312.46 764.50 317.00 758.00
C 320.54 764.82 322.76 770.30 326.75 777.25 C 330.73 784.21 343.80 779.80 351.00 781.00
C 342.74 769.14 334.53 757.32 327.00 745.00
C 335.50 735.41 341.92 723.79 349.00 713.00
C 343.18 715.14 330.89 709.45 326.77 715.77 C 322.65 722.10 320.81 728.29 318.00 735.00 Z"/>
</g>
<g fill="#000000" fill-opacity="1.00" stroke="None">
<path d="
M 376.00 713.00 
C 369.74 713.58 362.85 711.79 357.00 714.00
C 359.33 735.80 357.34 758.75 358.00 781.00
C 364.00 781.00 370.00 781.00 376.00 781.00
C 376.00 758.33 376.00 735.67 376.00 713.00 Z"/>
</g>
<g fill="#000000" fill-opacity="1.00" stroke="None">
<path d="
M 505.00 714.00 
C 499.24 711.49 491.52 714.02 486.00 713.00
C 487.64 731.04 483.28 753.55 487.23 770.77 C 491.18 787.99 515.58 784.40 524.00 774.00
C 521.19 785.74 536.25 779.44 543.00 781.00
C 543.00 758.33 543.00 735.67 543.00 713.00
C 536.67 713.00 530.33 713.00 524.00 713.00
C 524.14 727.91 523.82 742.00 523.99 756.99 C 524.17 771.98 502.56 770.70 504.00 756.00 C 505.44 741.30 502.10 728.08 505.00 714.00 Z"/>
</g>
<g fill="#000000" fill-opacity="1.00" stroke="None">
<path d="
M 799.00 713.00 
C 792.74 713.58 785.85 711.79 780.00 714.00
C 781.06 731.57 779.99 747.02 781.02 765.98 C 782.06 784.93 809.26 787.53 819.00 774.00
C 816.11 785.44 830.42 779.62 837.00 781.00
C 837.00 758.33 837.00 735.67 837.00 713.00
C 831.00 713.00 825.00 713.00 819.00 713.00
C 818.72 727.78 819.40 742.10 818.93 756.93 C 818.45 771.76 797.12 771.12 799.00 756.00 C 800.88 740.88 797.59 727.92 799.00 713.00 Z"/>
</g>
<g fill="#FFFFFF" fill-opacity="1.00" stroke="None">
<path d="
M 748.00 725.00 
C 726.34 718.43 726.38 762.32 738.93 769.07 C 751.47 775.82 755.01 759.24 755.00 752.00 C 754.99 744.76 757.02 727.74 748.00 725.00 Z"/>
</g>
<g fill="#FFFFFF" fill-opacity="1.00" stroke="None">
<path d="
M 876.00 725.00 
C 865.75 723.29 862.78 737.21 863.00 745.00 C 863.22 752.79 861.88 766.75 872.00 769.00 C 882.12 771.25 885.67 755.99 885.00 749.00 C 884.33 742.01 884.96 726.50 876.00 725.00 Z"/>
</g>
<g fill="#FFFFFF" fill-opacity="1.00" stroke="None">
<path d="
M 258.00 750.00 
C 249.46 748.73 230.15 756.79 240.75 767.25 C 251.35 777.70 262.49 760.27 258.00 750.00 Z"/>
</g>
</svg>